<svg xmlns="http://www.w3.org/2000/svg" viewBox="0 0 35 35"><defs><style>.cls-1{fill:#d86613;}.cls-2{fill:#fff;}</style></defs><title>Auto-Scaling_light-bg</title><g id="Working"><rect class="cls-1" width="35" height="35"/><polygon class="cls-2" points="12.3 14.83 11.59 15.54 13.05 17 5 17 5 18 13.05 18 11.59 19.46 12.3 20.17 14.97 17.5 12.3 14.83"/><polygon class="cls-2" points="30 17 21.95 17 23.41 15.54 22.7 14.83 20.03 17.5 22.7 20.17 23.41 19.46 21.95 18 30 18 30 17"/><polygon class="cls-2" points="17 6.64 17 14.69 18 14.69 18 6.64 19.46 8.1 20.17 7.39 17.5 4.72 14.83 7.39 15.54 8.1 17 6.64"/><polygon class="cls-2" points="18 28.36 18 20.31 17 20.31 17 28.36 15.54 26.9 14.83 27.61 17.5 30.28 20.17 27.61 19.46 26.9 18 28.36"/></g></svg>