<svg xmlns="http://www.w3.org/2000/svg" viewBox="0 0 35 35"><defs><style>.cls-1{fill:#232f3e;}.cls-2,.cls-3{fill:#fff;}.cls-3{fill-rule:evenodd;}</style></defs><title>AWS-Cloud-alt_light-bg</title><g id="Working"><rect class="cls-1" width="35" height="35"/><path class="cls-2" d="M11.38,16.17a2.6,2.6,0,0,0,.11.83,4.22,4.22,0,0,0,.3.67.4.4,0,0,1,.07.21.36.36,0,0,1-.18.28l-.59.39a.43.43,0,0,1-.24.08.38.38,0,0,1-.28-.13,2.38,2.38,0,0,1-.34-.43c-.09-.16-.18-.34-.28-.55a3.44,3.44,0,0,1-2.74,1.29,2.54,2.54,0,0,1-1.86-.67,2.36,2.36,0,0,1-.68-1.79,2.43,2.43,0,0,1,.84-1.92,3.43,3.43,0,0,1,2.29-.72,6.75,6.75,0,0,1,1,.07c.35.05.7.12,1.07.2V13.3a2.06,2.06,0,0,0-.44-1.49,2.12,2.12,0,0,0-1.52-.43,4.4,4.4,0,0,0-1,.12,6.85,6.85,0,0,0-1,.32l-.33.12-.14,0c-.14,0-.2-.1-.2-.29v-.46a.62.62,0,0,1,.06-.32.78.78,0,0,1,.27-.2,6,6,0,0,1,1.17-.42,5.7,5.7,0,0,1,1.45-.18,3.37,3.37,0,0,1,2.44.76,3,3,0,0,1,.77,2.29ZM7.6,17.59a3,3,0,0,0,1-.17,2,2,0,0,0,.88-.6,1.36,1.36,0,0,0,.32-.59,3.18,3.18,0,0,0,.09-.81V15A7.52,7.52,0,0,0,9,14.87c-.3,0-.59,0-.88,0a2.13,2.13,0,0,0-1.38.37,1.3,1.3,0,0,0-.46,1.08,1.3,1.3,0,0,0,.34,1A1.33,1.33,0,0,0,7.6,17.59Zm7.49,1a.56.56,0,0,1-.36-.09.73.73,0,0,1-.2-.37l-2.18-7.2a1.39,1.39,0,0,1-.08-.38c0-.15.07-.23.22-.23h.92a.56.56,0,0,1,.36.09.74.74,0,0,1,.19.37L15.53,17,17,10.79a.61.61,0,0,1,.18-.37.59.59,0,0,1,.37-.09h.75a.62.62,0,0,1,.38.09.74.74,0,0,1,.18.37L20.31,17l1.61-6.24a.74.74,0,0,1,.19-.37.56.56,0,0,1,.36-.09h.87a.21.21,0,0,1,.23.23,1,1,0,0,1,0,.15s0,.13-.06.23l-2.26,7.2a.74.74,0,0,1-.19.37.6.6,0,0,1-.36.09h-.8a.53.53,0,0,1-.37-.1.64.64,0,0,1-.18-.37l-1.45-6-1.44,6a.64.64,0,0,1-.18.37.55.55,0,0,1-.37.1Zm12,.24a6.29,6.29,0,0,1-1.44-.16,4.21,4.21,0,0,1-1.07-.37.69.69,0,0,1-.29-.26.66.66,0,0,1-.06-.27v-.47c0-.19.07-.29.21-.29a.57.57,0,0,1,.18,0l.23.1a4.76,4.76,0,0,0,1,.32,5.24,5.24,0,0,0,1.11.12,2.47,2.47,0,0,0,1.36-.31,1,1,0,0,0,.48-.88.88.88,0,0,0-.25-.65,2.29,2.29,0,0,0-.94-.49l-1.35-.43a2.83,2.83,0,0,1-1.49-.94,2.24,2.24,0,0,1-.47-1.36,2,2,0,0,1,.25-1,2.47,2.47,0,0,1,.67-.77,3,3,0,0,1,1-.48,4.1,4.1,0,0,1,1.18-.16,4.4,4.4,0,0,1,.62,0l.61.1.53.15.39.16a1.18,1.18,0,0,1,.28.23.57.57,0,0,1,.08.31v.44q0,.3-.21.3a.92.92,0,0,1-.36-.12,4.35,4.35,0,0,0-1.8-.36,2.51,2.51,0,0,0-1.24.26.92.92,0,0,0-.44.84.91.91,0,0,0,.28.66,2.78,2.78,0,0,0,1,.51l1.32.42a2.88,2.88,0,0,1,1.44.9,2.1,2.1,0,0,1,.43,1.31,2.38,2.38,0,0,1-.24,1.08,2.34,2.34,0,0,1-.68.82,3,3,0,0,1-1,.53A4.59,4.59,0,0,1,27.06,18.84Z"/><path class="cls-3" d="M28.82,23.43A20.07,20.07,0,0,1,17.47,26.9,20.54,20.54,0,0,1,3.61,21.62c-.29-.26,0-.62.32-.42a27.81,27.81,0,0,0,13.86,3.68,27.54,27.54,0,0,0,10.58-2.16C28.89,22.5,29.33,23.06,28.82,23.43Z"/><path class="cls-3" d="M30.1,22c-.4-.51-2.6-.24-3.59-.12-.3,0-.34-.23-.07-.42,1.75-1.23,4.63-.88,5-.46s-.09,3.3-1.74,4.68c-.25.21-.49.09-.38-.18C29.66,24.55,30.49,22.48,30.1,22Z"/></g></svg>