<svg xmlns="http://www.w3.org/2000/svg" viewBox="0 0 35 35"><defs><style>.cls-1{fill:#232f3e;}.cls-2{fill:#fff;}</style></defs><title>AWS-Cloud_light-bg</title><g id="Working"><rect class="cls-1" width="35" height="35"/><path class="cls-2" d="M25.54,25.76l-15.62,0A4.87,4.87,0,0,1,5,21.26c0-.13,0-.26,0-.39a4.56,4.56,0,0,1,3.27-4.6c0-.14,0-.28,0-.41a6.87,6.87,0,0,1,3.9-6,6.54,6.54,0,0,1,7.39,1.46,7.42,7.42,0,0,1,1.51,2.24A2.91,2.91,0,0,1,23.72,13a3.52,3.52,0,0,1,2.35,3.19A4.73,4.73,0,0,1,30,20.91C30,25.34,25.59,25.75,25.54,25.76ZM8.87,17.09A3.65,3.65,0,0,0,6,20.87c0,.11,0,.22,0,.33a3.91,3.91,0,0,0,4,3.58l15.59,0a3.91,3.91,0,0,0,0-7.79.47.47,0,0,1-.39-.54,2.69,2.69,0,0,0-1.69-2.59,2,2,0,0,0-2.17.78.48.48,0,0,1-.46.19.5.5,0,0,1-.38-.32A6.76,6.76,0,0,0,18.87,12a5.58,5.58,0,0,0-6.33-1.26,6,6,0,0,0-3.32,5.17,5.48,5.48,0,0,0,0,.7.48.48,0,0,1-.38.53Z"/></g></svg>