<svg xmlns="http://www.w3.org/2000/svg" viewBox="0 0 35 35"><defs><style>.cls-1{fill:#cd2264;}.cls-2{fill:#fff;}</style></defs><title>AWS-Step-Function_light-bg</title><g id="Working"><rect class="cls-1" width="35" height="35"/><path class="cls-2" d="M24.5,23h-14V21.5h4A.5.5,0,0,0,15,21V18.5a.5.5,0,0,0-.5-.5h-4V17h4a.5.5,0,0,0,.5-.5V14a.5.5,0,0,0-.5-.5h-4V12h14v2.5h1v-3A.5.5,0,0,0,25,11H18V10a2.5,2.5,0,1,0-1,0V11H10a.5.5,0,0,0-.5.5v2h-4A.5.5,0,0,0,5,14v2.5a.5.5,0,0,0,.5.5h4v1h-4a.5.5,0,0,0-.5.5V21a.5.5,0,0,0,.5.5h4v2a.5.5,0,0,0,.5.5h7v1.05a2.5,2.5,0,1,0,1,0V24h7a.5.5,0,0,0,.5-.5V21h-1ZM16,7.5A1.5,1.5,0,1,1,17.5,9,1.5,1.5,0,0,1,16,7.5Zm-10,7h8V16H6ZM6,19h8v1.5H6Zm13,8.5A1.5,1.5,0,1,1,17.5,26,1.5,1.5,0,0,1,19,27.5Z"/><path class="cls-2" d="M29.5,15.5h-10a.5.5,0,0,0-.5.5v3.5a.5.5,0,0,0,.5.5h10a.5.5,0,0,0,.5-.5V16A.5.5,0,0,0,29.5,15.5ZM29,19H20V16.5h9Z"/></g></svg>