<svg xmlns="http://www.w3.org/2000/svg" viewBox="0 0 35 35"><defs><style>.cls-1{fill:#5a6c86;}.cls-2{fill:#fff;}</style></defs><title>Corporate-data-center_light-bg</title><g id="Working"><rect class="cls-1" width="35" height="35"/><path class="cls-2" d="M25.31,13.25H21.65V5.5a.5.5,0,0,0-.5-.5h-7.3a.5.5,0,0,0-.5.5v7.75H9.69a.5.5,0,0,0-.5.5V29.5a.5.5,0,0,0,.5.5H25.31a.5.5,0,0,0,.5-.5V13.75A.5.5,0,0,0,25.31,13.25ZM24.81,29H10.19V14.25h3.66a.5.5,0,0,0,.5-.5V6h6.3v7.75a.5.5,0,0,0,.5.5h3.66Z"/><rect class="cls-2" x="12.38" y="16.31" width="1" height="2.6"/><rect class="cls-2" x="12.38" y="20.48" width="1" height="2.6"/><rect class="cls-2" x="12.38" y="24.65" width="1" height="2.6"/><rect class="cls-2" x="17.07" y="16.31" width="1" height="2.6"/><rect class="cls-2" x="17.07" y="20.48" width="1" height="2.6"/><rect class="cls-2" x="17.07" y="24.65" width="1" height="2.6"/><rect class="cls-2" x="21.76" y="16.31" width="1" height="2.6"/><rect class="cls-2" x="21.76" y="20.48" width="1" height="2.6"/><rect class="cls-2" x="21.76" y="24.65" width="1" height="2.6"/><rect class="cls-2" x="17.07" y="8.31" width="1" height="2.6"/><rect class="cls-2" x="17.07" y="12.48" width="1" height="2.6"/></g></svg>