<svg xmlns="http://www.w3.org/2000/svg" viewBox="0 0 35 35"><defs><style>.cls-1{fill:#d86613;}.cls-2{fill:#fff;}</style></defs><title>Group-Name_light-bg copy 5</title><g id="Working"><rect class="cls-1" width="35" height="35"/><path class="cls-2" d="M29.5,11.72v-1H27.15V7.85h-3V5.5h-1V7.85H21V5.5H20V7.85H17.88V5.5h-1V7.85H14.74V5.5h-1V7.85H11.6V5.5h-1V7.85H7.85v2.87H5.5v1H7.85v2.14H5.5v1H7.85V17H5.5v1H7.85v2.14H5.5v1H7.85v2.14H5.5v1H7.85v2.87H10.6V29.5h1V27.15h2.14V29.5h1V27.15h2.14V29.5h1V27.15H20V29.5h1V27.15h2.14V29.5h1V27.15h3V24.28H29.5v-1H27.15V21.14H29.5v-1H27.15V18H29.5V17H27.15V14.86H29.5v-1H27.15V11.72ZM26.15,26.15H8.85V8.85h17.3Z"/></g></svg>