<svg xmlns="http://www.w3.org/2000/svg" viewBox="0 0 35 35"><defs><style>.cls-1{fill:#d86613;}.cls-2{fill:#fff;}</style></defs><title>Elastic-Beanstalk-container_light-bg</title><g id="Working"><rect class="cls-1" width="35" height="35"/><path class="cls-2" d="M25,22.24v-1c1.2,0,4-.36,4-3.7,0-2-1.18-3.26-3.5-3.72a.51.51,0,0,1-.4-.46c-.11-2-1.25-2.65-2.18-2.65a2,2,0,0,0-1.63.83.48.48,0,0,1-.47.19.51.51,0,0,1-.4-.32,6.57,6.57,0,0,0-1.56-2.48,5.59,5.59,0,0,0-9.61,3.74,4.91,4.91,0,0,0,.05.67.5.5,0,0,1-.38.55A3.54,3.54,0,0,0,6,17.51a2.44,2.44,0,0,0,0,.27,3.81,3.81,0,0,0,3.92,3.46h.57v1H9.93A4.81,4.81,0,0,1,5,17.84c0-.11,0-.22,0-.33A4.45,4.45,0,0,1,8.27,13c0-.12,0-.25,0-.37a6.59,6.59,0,0,1,11.3-4.46,7.16,7.16,0,0,1,1.51,2.15,3,3,0,0,1,1.86-.65c1.4,0,2.87,1,3.14,3.21,2.55.63,3.94,2.26,3.94,4.62C30,21,27.42,22.24,25,22.24Z"/><path class="cls-2" d="M21,17.17a2.72,2.72,0,0,0-.5,5.39v2.19h-3V16.22a2.72,2.72,0,1,0-1,0v6h-3v-1a2.72,2.72,0,1,0-1,0v1.46a.51.51,0,0,0,.5.5h3.5v5.5h1v-3H21a.51.51,0,0,0,.5-.5V22.56a2.72,2.72,0,0,0-.5-5.39Zm-9.72,1.45A1.72,1.72,0,1,1,13,20.34,1.72,1.72,0,0,1,11.28,18.62Zm4-5.07A1.72,1.72,0,1,1,17,15.27,1.72,1.72,0,0,1,15.28,13.55ZM21,21.61a1.72,1.72,0,1,1,1.72-1.72A1.72,1.72,0,0,1,21,21.61Z"/></g></svg>