<svg xmlns="http://www.w3.org/2000/svg" viewBox="0 0 35 35"><defs><style>.cls-1{fill:#d86613;}.cls-2{fill:#fff;}</style></defs><title>Spot-Fleet_light-bg</title><g id="Working"><rect class="cls-1" width="35" height="35"/><path class="cls-2" d="M21,19.87v-4.7A1.15,1.15,0,0,0,19.85,14h-4.7A1.15,1.15,0,0,0,14,15.17v4.7A1.16,1.16,0,0,0,15.15,21h4.7A1.16,1.16,0,0,0,21,19.87Zm-6,0v-4.7a.15.15,0,0,1,.15-.15h4.7a.15.15,0,0,1,.15.15v4.7a.15.15,0,0,1-.15.15h-4.7A.15.15,0,0,1,15,19.87Z"/><path class="cls-2" d="M13.5,18V17H11.73a.73.73,0,0,0-.73.73v5.53a.74.74,0,0,0,.73.74h5.54a.74.74,0,0,0,.73-.74V21.52H17V23H12V18Z"/><path class="cls-2" d="M21.5,17v1h1.77a.74.74,0,0,0,.73-.74V11.75a.73.73,0,0,0-.73-.73H17.73a.73.73,0,0,0-.73.73V13.5h1V12h5v5Z"/><rect class="cls-2" x="9.75" y="5.67" width="1" height="9.19" transform="translate(-4.26 10.25) rotate(-45)"/><rect class="cls-2" x="24.25" y="20.17" width="1" height="9.19" transform="translate(-10.26 24.75) rotate(-45)"/><rect class="cls-2" x="6.28" y="25.77" width="4.95" height="1" transform="translate(-16.01 13.88) rotate(-45)"/><rect class="cls-2" x="23.78" y="8.27" width="4.95" height="1" transform="translate(1.49 21.13) rotate(-45)"/><path class="cls-2" d="M30,17H29a11.47,11.47,0,0,0-2.15-6.24l-.82.59A10.29,10.29,0,0,1,28,17H27v1h1a10.25,10.25,0,0,1-2,5.64l.82.59A11.46,11.46,0,0,0,29,18h1Z"/><path class="cls-2" d="M11.35,9A10.38,10.38,0,0,1,17,7V8h1V7a10.38,10.38,0,0,1,5.65,2l.58-.81A11.36,11.36,0,0,0,18,6V5H17V6a11.36,11.36,0,0,0-6.23,2.15Z"/><path class="cls-2" d="M23.65,26A10.47,10.47,0,0,1,18,28V27H17v1a10.47,10.47,0,0,1-5.65-2l-.58.81A11.39,11.39,0,0,0,17,29v1h1V29a11.39,11.39,0,0,0,6.23-2.16Z"/><path class="cls-2" d="M8.17,24.25,9,23.66A10.25,10.25,0,0,1,7,18H8V17H7a10.29,10.29,0,0,1,2-5.65l-.82-.59A11.47,11.47,0,0,0,6,17H5v1H6A11.46,11.46,0,0,0,8.17,24.25Z"/></g></svg>