<svg xmlns="http://www.w3.org/2000/svg" viewBox="0 0 35 35"><defs><style>.cls-1{fill:#248814;}.cls-2{fill:#fff;}</style></defs><title>VPC-subnet-public_light-bg</title><g id="Working"><rect class="cls-1" y="0.02" width="35" height="35"/><path class="cls-2" d="M17.51,17.84a2.39,2.39,0,0,0-.5,4.72v3.29h1V22.56a2.39,2.39,0,0,0-.5-4.72Zm0,3.77a1.39,1.39,0,1,1,1.38-1.38A1.38,1.38,0,0,1,17.51,21.61Z"/><path class="cls-2" d="M22.72,14.32V11.65a5.22,5.22,0,1,0-10.44,0v2.67H9.14V28.61H25.86V14.32Zm-9.44-2.67a4.22,4.22,0,1,1,8.44,0v2.67H13.28Zm11.58,16H10.14V15.32H24.86Z"/></g></svg>