<svg xmlns="http://www.w3.org/2000/svg" viewBox="0 0 35 35"><defs><style>.cls-1{fill:#147eba;}.cls-2{fill:#fff;}</style></defs><title>VPC-subnet-private_light-bg</title><g id="Working"><rect class="cls-1" width="35" height="35"/><path class="cls-2" d="M17.51,17.83a2.38,2.38,0,0,0-.5,4.71v3.29h1V22.54a2.38,2.38,0,0,0-.5-4.71Zm0,3.76a1.38,1.38,0,1,1,1.38-1.38A1.38,1.38,0,0,1,17.51,21.59Z"/><path class="cls-2" d="M22.72,14.3V11.63a5.22,5.22,0,1,0-10.44,0V14.3H9.14V28.59H25.86V14.3Zm-9.44-2.67a4.22,4.22,0,1,1,8.44,0V14.3H13.28Zm11.58,16H10.14V15.3H24.86Z"/></g></svg>