<svg width="40" height="40" viewBox="0 0 40 40" xmlns="http://www.w3.org/2000/svg" xmlns:xlink="http://www.w3.org/1999/xlink" overflow="hidden"><g id="Icon-Architecture-Group/32/Auto-Scaling-group_32" stroke="none" stroke-width="1" fill="none" fill-rule="evenodd"><rect x="0" y="0" width="40" height="40" id="Rectangle" fill="#ED7100"/><path d="M18.021 19.4953C18.021 19.3403 17.95 19.1983 17.833 19.1043L14.879 16.1513 14.172 16.8583 16.31 18.9953 7 18.9953 7 19.9953 16.314 19.9953 14.172 22.1373 14.879 22.8443 17.848 19.8753C17.956 19.7813 18.021 19.6433 18.021 19.4953L18.021 19.4953ZM33.986 18.9953 24.675 18.9953 26.813 16.8583 26.106 16.1513 23.137 19.1203C23.03 19.2133 22.964 19.3513 22.964 19.4993 22.964 19.6543 23.036 19.7973 23.153 19.8903L26.106 22.8443 26.813 22.1373 24.671 19.9953 33.986 19.9953 33.986 18.9953ZM20.996 31.3243 20.996 22.0103 19.996 22.0103 19.996 31.3203 17.858 29.1833 17.151 29.8903 20.12 32.8573C20.213 32.9663 20.352 33.0323 20.5 33.0323 20.656 33.0323 20.8 32.9593 20.893 32.8413L23.844 29.8903 23.137 29.1833 20.996 31.3243ZM17.858 9.83725 17.151 9.13025 20.103 6.17925C20.285 5.94725 20.683 5.93925 20.877 6.16225L23.844 9.13025 23.137 9.83725 20.996 7.69625 20.996 17.0103 19.996 17.0103 19.996 7.70025 17.858 9.83725Z" id="Fill-1" fill="#FFFFFF"/></g></svg>