<svg width="40" height="40" viewBox="0 0 40 40" xmlns="http://www.w3.org/2000/svg" xmlns:xlink="http://www.w3.org/1999/xlink" overflow="hidden"><g id="Icon-Architecture-Group/32/AWS-IoT-Greengrass-Deployment_32" stroke="none" stroke-width="1" fill="none" fill-rule="evenodd"><rect x="0" y="0" width="40" height="40" id="Rectangle" fill="#7AA116"/><path d="M31.5 24C30.673 24 30 23.327 30 22.5 30 21.673 30.673 21 31.5 21 32.327 21 33 21.673 33 22.5 33 23.327 32.327 24 31.5 24M22.5 33C21.673 33 21 32.327 21 31.5 21 30.673 21.673 30 22.5 30 23.326 30 23.999 30.673 23.999 31.5 23.999 32.327 23.326 33 22.5 33M34 22.5C34 21.32 33.176 20.334 32.075 20.073 31.873 19.413 31.622 18.768 31.284 18.163L30.411 18.651C30.66 19.097 30.854 19.568 31.02 20.048 29.87 20.273 29 21.286 29 22.5 29 23.792 29.988 24.846 31.247 24.975 30.492 28.096 28.097 30.54 24.984 31.354 24.906 30.044 23.828 29 22.5 29 21.223 29 20.178 29.967 20.029 31.205 19.465 31.019 18.912 30.796 18.394 30.496L17.894 31.362C18.599 31.77 19.356 32.059 20.137 32.278 20.465 33.274 21.395 34 22.5 34 23.544 34 24.438 33.355 24.812 32.443 28.612 31.632 31.555 28.648 32.318 24.851 33.294 24.51 34 23.59 34 22.5M17.5 28C16.673 28 16 27.327 16 26.5 16 25.673 16.673 25 17.5 25 18.327 25 19 25.673 19 26.5 19 27.327 18.327 28 17.5 28M24.999 17.5C24.999 16.673 25.672 16 26.5 16 27.327 16 28 16.673 28 17.5 28 18.327 27.327 19 26.5 19 25.672 19 24.999 18.327 24.999 17.5M19.997 26.529C23.164 25.617 25.676 23.139 26.633 19.986 27.949 19.916 29 18.833 29 17.5 29 16.231 28.047 15.192 26.821 15.032 26.479 13.496 25.781 12.052 24.757 10.845L23.995 11.491C24.882 12.538 25.493 13.783 25.813 15.108 24.77 15.409 23.999 16.362 23.999 17.5 23.999 18.573 24.683 19.482 25.635 19.836 24.754 22.572 22.563 24.72 19.809 25.544 19.432 24.639 18.54 24 17.5 24 16.417 24 15.503 24.695 15.156 25.66 14.313 25.448 13.509 25.118 12.76 24.663L12.24 25.518C13.106 26.043 14.039 26.418 15.016 26.652 15.096 27.958 16.173 29 17.5 29 18.869 29 19.981 27.894 19.997 26.529M10 17.5C10 18.327 9.327 19 8.5 19 7.673 19 7 18.327 7 17.5 7 16.673 7.673 16 8.5 16 9.327 16 10 16.673 10 17.5M17.5 7C18.327 7 19 7.673 19 8.5 19 9.327 18.327 10 17.5 10 16.673 10 16 9.327 16 8.5 16 7.673 16.673 7 17.5 7M15.02 8.697C15.122 9.982 16.188 11 17.5 11 18.767 11 19.804 10.051 19.967 8.829 20.612 9.035 21.24 9.292 21.823 9.643L22.339 8.787C21.569 8.323 20.736 7.985 19.872 7.75 19.551 6.739 18.615 6 17.5 6 16.428 6 15.519 6.682 15.164 7.632 11.474 8.463 8.54 11.431 7.75 15.127 6.739 15.448 6 16.384 6 17.5 6 18.686 6.831 19.676 7.94 19.932 8.312 21.188 8.915 22.343 9.754 23.362L10.525 22.726C9.842 21.895 9.336 20.959 8.998 19.95 10.139 19.718 11 18.708 11 17.5 11 16.225 10.037 15.181 8.801 15.03 9.57 11.975 11.979 9.522 15.02 8.697" id="Fill-1" fill="#FFFFFF"/></g></svg>