<svg width="40" height="40" viewBox="0 0 40 40" xmlns="http://www.w3.org/2000/svg" xmlns:xlink="http://www.w3.org/1999/xlink" overflow="hidden"><g id="Icon-Architecture/32/Arch_AWS-Step-Functions_32" stroke="none" stroke-width="1" fill="none" fill-rule="evenodd"><g id="Icon-Architecture-BG/32/Application-Integration" fill="#E7157B"><rect x="0" y="0" width="40" height="40" id="Rectangle"/></g><path d="M23 22 33 22 33 18 23 18 23 22ZM33.5 17 22.5 17C22.224 17 22 17.224 22 17.5L22 22.5C22 22.776 22.224 23 22.5 23L33.5 23C33.776 23 34 22.776 34 22.5L34 17.5C34 17.224 33.776 17 33.5 17L33.5 17ZM22 31.5C22 32.327 21.327 33 20.5 33 19.673 33 19 32.327 19 31.5 19 30.673 19.673 30 20.5 30 21.327 30 22 30.673 22 31.5L22 31.5ZM7 24 16 24 16 22 7 22 7 24ZM7 18 7 16 11 16 12 16 16 16 16 18 7 18ZM19 8.5C19 7.673 19.673 7 20.5 7 21.327 7 22 7.673 22 8.5 22 9.327 21.327 10 20.5 10 19.673 10 19 9.327 19 8.5L19 8.5ZM28 27 12 27 12 25 16.5 25C16.776 25 17 24.776 17 24.5L17 21.5C17 21.224 16.776 21 16.5 21L12 21 12 19 16.5 19C16.776 19 17 18.776 17 18.5L17 15.5C17 15.224 16.776 15 16.5 15L12 15 12 13 28 13 28 15 29 15 29 12.5C29 12.224 28.776 12 28.5 12L21 12 21 10.949C22.14 10.717 23 9.707 23 8.5 23 7.122 21.879 6 20.5 6 19.121 6 18 7.122 18 8.5 18 9.707 18.86 10.717 20 10.949L20 12 11.5 12C11.224 12 11 12.224 11 12.5L11 15 6.5 15C6.224 15 6 15.224 6 15.5L6 18.5C6 18.776 6.224 19 6.5 19L11 19 11 21 6.5 21C6.224 21 6 21.224 6 21.5L6 24.5C6 24.776 6.224 25 6.5 25L11 25 11 27.5C11 27.776 11.224 28 11.5 28L20 28 20 29.051C18.86 29.283 18 30.293 18 31.5 18 32.878 19.121 34 20.5 34 21.879 34 23 32.878 23 31.5 23 30.293 22.14 29.283 21 29.051L21 28 28.5 28C28.776 28 29 27.776 29 27.5L29 25 28 25 28 27Z" id="AWS_Step_Functions_Icon_32_Squid" fill="#FFFFFF"/></g></svg>