<svg width="40" height="40" viewBox="0 0 40 40" xmlns="http://www.w3.org/2000/svg" xmlns:xlink="http://www.w3.org/1999/xlink" overflow="hidden"><g id="Icon-Architecture-Group/32/Region_32" stroke="none" stroke-width="1" fill="none" fill-rule="evenodd"><rect x="0" y="0" width="40" height="40" id="Rectangle" fill="#00A4A6"/><path d="M14 20.026 14 11.026 29.293 11.026 25.146 15.172C24.951 15.368 24.951 15.684 25.146 15.88L29.293 20.026 14 20.026ZM26.207 15.526 30.854 10.88C30.996 10.736 31.039 10.522 30.962 10.335 30.885 10.148 30.702 10.026 30.5 10.026L14 10.026 14 8.97C14.596 8.76 15.026 8.198 15.026 7.531 15.026 6.687 14.34 6 13.495 6 12.65 6 11.963 6.687 11.963 7.531 11.963 8.201 12.398 8.766 13 8.973L13 33.026 10 33.026 10 34.026 17 34.026 17 33.026 14 33.026 14 21.026 30.5 21.026C30.702 21.026 30.885 20.904 30.962 20.717 31.039 20.53 30.996 20.316 30.854 20.172L26.207 15.526Z" id="Fill-1" fill="#FFFFFF"/></g></svg>