<svg width="40" height="40" viewBox="0 0 40 40" xmlns="http://www.w3.org/2000/svg" xmlns:xlink="http://www.w3.org/1999/xlink" overflow="hidden"><g id="Icon-Architecture-Group/32/Spot-Fleet_32" stroke="none" stroke-width="1" fill="none" fill-rule="evenodd"><rect x="0" y="0" width="40" height="40" id="Rectangle" fill="#ED7100"/><path d="M7.1396 20 5.9996 20 5.9996 19 7.1396 19C7.2366 16.558 8.0276 14.233 9.4606 12.252L10.2716 12.838C8.9616 14.647 8.2356 16.77 8.1396 19L8.9996 19 8.9996 20 8.1396 20C8.2356 22.23 8.9616 24.353 10.2716 26.162L9.4606 26.748C8.0276 24.767 7.2366 22.442 7.1396 20L7.1396 20ZM26.7476 29.539C24.7666 30.973 22.4426 31.764 19.9996 31.86L19.9996 33 18.9996 33 18.9996 31.86C16.5576 31.764 14.2336 30.973 12.2516 29.539L12.8376 28.729C14.6476 30.038 16.7696 30.765 18.9996 30.86L18.9996 30 19.9996 30 19.9996 30.86C22.2306 30.765 24.3526 30.038 26.1616 28.729L26.7476 29.539ZM12.2516 9.461C14.2336 8.027 16.5576 7.236 18.9996 7.14L18.9996 6 19.9996 6 19.9996 7.14C22.4426 7.236 24.7666 8.027 26.7476 9.461L26.1616 10.271C24.3526 8.962 22.2306 8.235 19.9996 8.14L19.9996 9 18.9996 9 18.9996 8.14C16.7696 8.235 14.6476 8.962 12.8376 10.271L12.2516 9.461ZM32.9996 20 31.8606 20C31.7636 22.442 30.9726 24.767 29.5386 26.748L28.7286 26.162C30.0376 24.353 30.7646 22.23 30.8606 20L29.9996 20 29.9996 19 30.8606 19C30.7646 16.77 30.0376 14.647 28.7286 12.838L29.5386 12.252C30.9726 14.233 31.7636 16.558 31.8606 19L32.9996 19 32.9996 20ZM26.7056 11.587 30.4866 7.807 31.1936 8.514 27.4126 12.294 26.7056 11.587ZM12.2936 27.413 8.5136 31.193 7.8066 30.486 11.5866 26.706 12.2936 27.413ZM24.1736 23.467 31.1936 30.486 30.4866 31.193 23.4666 24.174 24.1736 23.467ZM14.8266 15.533 7.8066 8.514 8.5136 7.807 15.5336 14.826 14.8266 15.533ZM24.9996 19 24.9996 14 19.9996 14 19.9996 15 18.9996 15 18.9996 13.751C18.9996 13.337 19.3366 13 19.7506 13L25.2486 13C25.6626 13 25.9996 13.337 25.9996 13.751L25.9996 19.249C25.9996 19.663 25.6626 20 25.2486 20L23.9996 20 23.9996 19 24.9996 19ZM13.9996 20 13.9996 25 18.9996 25 18.9996 24 19.9996 24 19.9996 25.249C19.9996 25.663 19.6626 26 19.2486 26L13.7506 26C13.3366 26 12.9996 25.663 12.9996 25.249L12.9996 19.751C12.9996 19.337 13.3366 19 13.7506 19L14.9996 19 14.9996 20 13.9996 20ZM16.9996 22 21.9996 22 21.9996 17 16.9996 17 16.9996 22ZM22.9996 22.129 22.9996 16.871C22.9996 16.391 22.6096 16 22.1286 16L16.8706 16C16.3906 16 15.9996 16.391 15.9996 16.871L15.9996 22.129C15.9996 22.609 16.3906 23 16.8706 23L22.1286 23C22.6096 23 22.9996 22.609 22.9996 22.129L22.9996 22.129Z" id="Fill-1" fill="#FFFFFF"/></g></svg>