<svg width="40" height="40" viewBox="0 0 40 40" xmlns="http://www.w3.org/2000/svg" xmlns:xlink="http://www.w3.org/1999/xlink" overflow="hidden"><g id="Icon-Architecture-Group/32/Virtual-private-cloud-VPC_32" stroke="none" stroke-width="1" fill="none" fill-rule="evenodd"><rect x="0" y="0" width="40" height="40" id="Rectangle" fill="#8C4FFF"/><path d="M30.9707 21.0294 28.0267 19.7664 28.0267 30.2554C30.5717 29.9034 30.9587 27.2874 30.9747 27.1684L30.9707 21.0294ZM27.0267 30.2694 27.0267 19.7594 23.9917 21.0324 23.9917 27.2334C24.0047 27.2874 24.4367 30.0004 27.0267 30.2694L27.0267 30.2694ZM27.3327 18.5474C27.4567 18.4944 27.5987 18.4954 27.7237 18.5484L31.6677 20.2404C31.8517 20.3194 31.9707 20.4994 31.9707 20.6994L31.9707 27.2334C31.7877 28.6804 30.6137 31.2964 27.4437 31.2964 24.3687 31.2964 23.1897 28.6844 22.9957 27.3024L22.9917 20.6994C22.9917 20.4984 23.1127 20.3164 23.2977 20.2384L27.3327 18.5474ZM32.9827 19.1844 27.5217 16.7784 21.9917 19.1054 21.9917 26.2334C21.9907 26.2754 21.9377 29.1014 23.6487 30.8564 24.5657 31.7974 25.8427 32.2754 27.4437 32.2754 29.0457 32.2754 30.3307 31.7964 31.2627 30.8534 32.9977 29.0954 32.9827 26.2684 32.9827 26.2404L32.9827 19.1844ZM31.9797 31.5504C30.8527 32.6944 29.3257 33.2754 27.4437 33.2754 25.5597 33.2754 24.0397 32.6944 22.9267 31.5484 20.9217 29.4854 20.9877 26.3514 20.9917 26.2194L20.9917 18.7734C20.9917 18.5724 21.1117 18.3904 21.2967 18.3124L27.3317 15.7724C27.4587 15.7204 27.6027 15.7194 27.7277 15.7764L33.6837 18.4014C33.8657 18.4814 33.9827 18.6604 33.9827 18.8584L33.9827 26.2334C33.9847 26.3584 34.0097 29.4884 31.9797 31.5504L31.9797 31.5504ZM10.9917 24.2364 18.9917 24.2364 18.9917 25.2364 10.9917 25.2364C8.1807 25.2364 6.1807 23.2204 6.0127 20.2204 6.0007 20.1094 5.9997 19.9754 5.9997 19.8414 5.9997 17.3324 7.3177 15.6184 9.8167 14.8624 9.7977 14.6354 9.7847 14.3964 9.7847 14.2154 9.7847 11.2994 11.3617 8.77036 13.8017 7.77036 17.0997 6.42236 20.8437 6.87636 22.9077 8.87436 23.6527 9.59836 24.2317 10.4164 24.6677 11.3594 25.2767 10.9094 26.0677 10.6984 27.0167 10.7454 28.7967 10.8354 30.1657 12.4584 30.4497 14.7524 31.9477 14.8764 32.9347 15.6354 33.4597 17.0604L32.5227 17.4064C32.0947 16.2494 31.3147 15.7334 29.9917 15.7334 29.7267 15.7334 29.5077 15.5274 29.4917 15.2634 29.3537 12.9254 28.0857 11.8004 26.9657 11.7444 26.0207 11.6914 25.3207 11.9634 24.8867 12.5354 24.7757 12.6804 24.6017 12.7524 24.4137 12.7284 24.2337 12.7004 24.0817 12.5774 24.0187 12.4054 23.6147 11.3024 23.0237 10.3824 22.2117 9.59136 20.4237 7.86136 17.1217 7.49236 14.1807 8.69636 12.1177 9.54136 10.7847 11.7074 10.7847 14.2154 10.7847 14.4884 10.8197 14.9114 10.8507 15.1744 10.8807 15.4254 10.7197 15.6584 10.4747 15.7184 8.1687 16.2904 6.9997 17.6774 6.9997 19.8414 6.9997 19.9424 6.9987 20.0424 7.0087 20.1434 7.1497 22.6384 8.7117 24.2364 10.9917 24.2364L10.9917 24.2364Z" id="Fill-1" fill="#FFFFFF"/></g></svg>