<?xml version="1.0" standalone="no"?>
<!DOCTYPE svg PUBLIC "-//W3C//DTD SVG 1.0//EN"
"http://www.w3.org/TR/2001/REC-SVG-20010904/DTD/svg10.dtd">

<!--

   Licensed to the Apache Software Foundation (ASF) under one or more
   contributor license agreements.  See the NOTICE file distributed with
   this work for additional information regarding copyright ownership.
   The ASF licenses this file to You under the Apache License, Version 2.0
   (the "License"); you may not use this file except in compliance with
   the License.  You may obtain a copy of the License at

       http://www.apache.org/licenses/LICENSE-2.0

   Unless required by applicable law or agreed to in writing, software
   distributed under the License is distributed on an "AS IS" BASIS,
   WITHOUT WARRANTIES OR CONDITIONS OF ANY KIND, either express or implied.
   See the License for the specific language governing permissions and
   limitations under the License.

-->
<!-- ========================================================================= -->
<!-- @author vincent.hardy@eng.sun.com                                         -->
<!-- @version $Id: moonPhases.svg 1733420 2016-03-03 07:41:59Z gadams $ -->
<!-- ========================================================================= -->
<svg xmlns="http://www.w3.org/2000/svg" xmlns:xlink="http://www.w3.org/1999/xlink" id="body" width="450" height="500" viewBox="0 0 450 500" xml:space="preserve">
  <g id="Background" style="fill-rule:nonzero;clip-rule:nonzero;stroke:#000000;stroke-miterlimit:4;">
    <radialGradient id="aigrd1" cx="110.8491" cy="257.335" r="296.7467" fx="110.8491" fy="257.335" gradientTransform="matrix(1.1222 0 0 1.0225 -26.394 -5.624)" gradientUnits="userSpaceOnUse">
      <stop  offset="0" style="stop-color:#FFFFFF"/>
      <stop  offset="0.0709" style="stop-color:#F9F9FF"/>
      <stop  offset="0.1626" style="stop-color:#E9E9FF"/>
      <stop  offset="0.2658" style="stop-color:#CFCFFF"/>
      <stop  offset="0.3773" style="stop-color:#A9A9FF"/>
      <stop  offset="0.4943" style="stop-color:#7A7AFF"/>
      <stop  offset="0.5393" style="stop-color:#6666FF"/>
      <stop  offset="0.588" style="stop-color:#5E5EEC"/>
      <stop  offset="0.6866" style="stop-color:#4B4BBB"/>
      <stop  offset="0.8267" style="stop-color:#2B2B6B"/>
      <stop  offset="1" style="stop-color:#000000"/>
    </radialGradient>
    <path style="fill:url(#aigrd1);stroke:none;" d="M450,500H0V0h450v500z"/>
  </g>
  <g id="Content" style="fill-rule:nonzero;clip-rule:nonzero;fill:none;stroke:#000000;stroke-width:0.05;stroke-miterlimit:4; font-family:'Verdana';" font-size="10" text-anchor="middle">
    <g>
      <radialGradient id="aigrd2" cx="117.666" cy="274.8911" r="81.2985" fx="117.666" fy="274.8911" gradientUnits="userSpaceOnUse">
        <stop  offset="0" style="stop-color:#FFFFFF"/>
        <stop  offset="0.1292" style="stop-color:#FFFF00"/>
        <stop  offset="0.3483" style="stop-color:#FF9900"/>
        <stop  offset="0.7303" style="stop-color:#993300"/>
        <stop  offset="1" style="stop-color:#000000"/>
      </radialGradient>
      <path style="fill:url(#aigrd2);stroke-width:0.2418;" d="M126.662,259.118l-8.512,3.337l6.857,6.047l-9.139,0.196l4.368,8.023l-8.652-2.942l1.375,9.031l-7.125-5.721l-1.815,8.954l-4.685-7.821l-4.762,7.808l-1.798-8.963l-7.15,5.693l1.406-9.028l-8.663,2.91
        l4.4-8.005l-9.135-0.223l6.879-6.013l-8.502-3.284l8.512-3.337l-6.857-6.046l9.138-0.197l-4.368-8.023l8.652,2.943l-1.375-9.031l7.124,5.721l1.815-8.955l4.685,7.821l4.762-7.808l1.799,8.963l7.15-5.693l-1.406,9.028l8.663-2.91l-4.399,8.005l9.135,0.222
        l-6.879,6.014l8.502,3.283z"/>
      <radialGradient id="aigrd3" cx="89.3315" cy="249.5571" r="62.4183" fx="89.3315" fy="249.5571" gradientUnits="userSpaceOnUse">
        <stop  offset="0" style="stop-color:#FFFFFF"/>
        <stop  offset="0.1292" style="stop-color:#FFFF00"/>
        <stop  offset="0.3483" style="stop-color:#FF9900"/>
        <stop  offset="0.7303" style="stop-color:#993300"/>
        <stop  offset="1" style="stop-color:#000000"/>
      </radialGradient>
      <path style="fill:url(#aigrd3);stroke:none;" d="M116.625,259.118c0,9.549-7.741,17.291-17.29,17.291s-17.29-7.741-17.29-17.291c0-9.549,7.741-17.29,17.29-17.29s17.29,7.741,17.29,17.29z"/>
    </g>
    <path style="fill:#000000;stroke-width:0.192;" d="M231.647,281.826c6.419-0.281,12.049-3.435,15.686-8.179l-16.345-12.742l0.659,20.921z"/>
    <path style="fill:#000000;stroke:none;" d="M230.983,260.753l20.64-0.65c0-0.009-0.001-0.017-0.001-0.025l-20.639,0.65l0,0.025z"/>
    <path style="fill:#000000;stroke:none;" d="M230.988,260.905l16.345,12.742c2.833-3.696,4.456-8.355,4.298-13.373c-0.001-0.057-0.005-0.114-0.007-0.171l-20.64,0.65l0.005,0.151z"/>
    <path style="fill:#000000;stroke:none;" d="M230.763,260.735l-0.003-0.002l-0.003,0.002l0.006,0z"/>
    <path style="fill:#000000;stroke:none;" d="M230.801,260.759l0.182-0.006l0-0.025l-0.22,0.006l-0.006,0l-0.167,0.005l-20.772,0.654c0,0.009,0,0.017,0,0.025l20.902-0.659l-15.734,13.944c3.981,4.544,9.889,7.337,16.398,7.132c0.088-0.003,0.174-0.008,0.262-0.012
      l-0.659-20.921l-0.187-0.146z"/>
    <path style="fill:#000000;stroke:none;" d="M214.987,274.706l15.734-13.944l-20.902,0.659c0.001,0.057,0.001,0.115,0.003,0.172c0.159,5.035,2.085,9.599,5.165,13.114z"/>
    <path style="fill:#000000;stroke:none;" d="M230.988,260.905l-0.005-0.151l-0.182,0.006l0.187,0.146z"/>
    <path style="stroke-width:0.192;" d="M243.17,277.728c4.063-3.007,6.725-7.213,7.853-11.774c1.43-5.779,0.396-12.126-3.375-17.321c-3.761-5.179-9.455-8.125-15.374-8.567c-4.702-0.352-9.545,0.876-13.678,3.818c-0.007,0.005-0.014,0.01-0.021,0.015
      c-0.047,0.034-0.094,0.065-0.14,0.099c-4.077,2.96-6.77,7.117-7.948,11.64c-1.523,5.846-0.514,12.303,3.313,17.573c0.051,0.071,0.104,0.14,0.156,0.21c3.839,5.152,9.611,8.039,15.579,8.382c4.648,0.267,9.416-1.008,13.478-3.957
      c0.046-0.034,0.091-0.069,0.137-0.103"/>
    <path style="stroke-width:0.192;" d="M232.61,469.728c4.063-3.007,6.725-7.214,7.853-11.774c1.43-5.779,0.397-12.126-3.375-17.321c-3.761-5.179-9.455-8.125-15.374-8.568c-4.702-0.352-9.545,0.876-13.677,3.818c-0.007,0.005-0.014,0.01-0.021,0.015
      c-0.047,0.034-0.094,0.065-0.14,0.099c-4.077,2.96-6.77,7.117-7.948,11.64c-1.523,5.846-0.514,12.303,3.313,17.573c0.051,0.071,0.104,0.14,0.157,0.21c3.839,5.152,9.611,8.038,15.579,8.382c4.648,0.267,9.415-1.008,13.477-3.957
      c0.046-0.034,0.092-0.069,0.137-0.103"/>
    <path style="fill:#000000;stroke:none;" d="M220.396,356.735l-0.003-0.002l-0.002,0.002l0.006,0z"/>
    <path style="fill:#000000;stroke:none;" d="M220.62,356.905l-0.004-0.151l-0.183,0.006l0.188,0.146z"/>
    <path style="fill:#000000;stroke:none;" d="M228.3,356.905l-0.187-0.146l0.183-0.006l-0.001-0.025l-0.219,0.006l-0.006,0l-0.166,0.005l-20.773,0.654c0,0.009,0,0.017,0,0.025c0.001,0.057,0.001,0.115,0.003,0.172c0.158,5.035,2.085,9.599,5.164,13.114
      c3.981,4.544,9.889,7.336,16.399,7.132c0.087-0.003,0.175-0.008,0.262-0.012l-0.66-20.921z"/>
    <path style="stroke-width:0.192;" d="M240.481,373.728c4.063-3.007,6.725-7.213,7.854-11.774c1.43-5.779,0.396-12.126-3.375-17.321c-3.761-5.179-9.455-8.125-15.374-8.567c-4.702-0.352-9.545,0.876-13.678,3.818c-0.006,0.005-0.014,0.01-0.02,0.015
      c-0.047,0.034-0.094,0.065-0.141,0.099c-4.077,2.96-6.77,7.117-7.948,11.64c-1.522,5.846-0.515,12.303,3.312,17.573c0.052,0.071,0.104,0.14,0.157,0.21c3.838,5.152,9.611,8.039,15.578,8.382c4.648,0.267,9.416-1.008,13.477-3.956
      c0.046-0.034,0.092-0.069,0.138-0.103"/>
    <radialGradient id="aigrd4" cx="227.2524" cy="375.9663" r="6.9063" fx="227.2524" fy="375.9663" gradientUnits="userSpaceOnUse">
      <stop  offset="0" style="stop-color:#FFFFFF"/>
      <stop  offset="0.1292" style="stop-color:#FFFF00"/>
      <stop  offset="0.3483" style="stop-color:#FF9900"/>
      <stop  offset="0.7303" style="stop-color:#993300"/>
      <stop  offset="1" style="stop-color:#000000"/>
    </radialGradient>
    <path style="fill:url(#aigrd4);stroke:none;" d="M232.47,377.763c0,2.011-1.614,3.641-3.604,3.641s-3.605-1.63-3.605-3.641s1.614-3.641,3.605-3.641s3.604,1.63,3.604,3.641z"/>
    <path style="fill:#000000;stroke:none;" d="M230.188,308.735l-0.003-0.002l-0.003,0.002l0.006,0z"/>
    <path style="fill:#000000;stroke:none;" d="M230.413,308.905l-0.188-0.146l0.182-0.006l0-0.025l-0.219,0.006l-0.006,0l-0.166,0.005l-20.772,0.654c0,0.009,0,0.017,0,0.025c0.001,0.057,0.001,0.115,0.003,0.172c0.159,5.035,2.085,9.599,5.165,13.114
      c3.981,4.544,9.889,7.337,16.399,7.132c0.087-0.003,0.174-0.008,0.262-0.012c6.419-0.281,12.05-3.435,15.686-8.179l-16.345-12.742z"/>
    <path style="fill:#000000;stroke:none;" d="M230.413,308.905l-0.005-0.151l-0.182,0.006l0.188,0.146z"/>
    <path style="stroke-width:0.192;" d="M242.594,325.728c4.063-3.007,6.725-7.213,7.853-11.774c1.43-5.779,0.396-12.126-3.375-17.321c-3.761-5.179-9.455-8.125-15.375-8.567c-4.702-0.352-9.545,0.876-13.677,3.818c-0.007,0.005-0.014,0.01-0.021,0.015
      c-0.046,0.034-0.094,0.065-0.14,0.099c-4.077,2.96-6.77,7.117-7.948,11.64c-1.523,5.846-0.514,12.303,3.313,17.573c0.051,0.071,0.104,0.14,0.157,0.21c3.839,5.152,9.611,8.039,15.579,8.382c4.648,0.267,9.415-1.008,13.477-3.957
      c0.046-0.034,0.092-0.069,0.137-0.103"/>
    <radialGradient id="aigrd5" cx="245.1079" cy="319.3833" r="6.906" fx="245.1079" fy="319.3833" gradientUnits="userSpaceOnUse">
      <stop  offset="0" style="stop-color:#FFFFFF"/>
      <stop  offset="0.1292" style="stop-color:#FFFF00"/>
      <stop  offset="0.3483" style="stop-color:#FF9900"/>
      <stop  offset="0.7303" style="stop-color:#993300"/>
      <stop  offset="1" style="stop-color:#000000"/>
    </radialGradient>
    <path style="fill:url(#aigrd5);stroke:none;" d="M250.325,321.18c0,2.011-1.614,3.641-3.604,3.641c-1.991,0-3.604-1.63-3.604-3.641s1.613-3.64,3.604-3.64c1.991,0,3.604,1.629,3.604,3.64z"/>
    <path style="fill:#000000;stroke:none;" d="M230.407,212.753l20.64-0.65c0-0.009,0-0.017-0.001-0.025l-20.64,0.65l0,0.025z"/>
    <path style="fill:#000000;stroke:none;" d="M251.046,212.078c-0.206-5.051-2.19-9.616-5.329-13.111l-15.533,13.766l0.003,0.002l0.219-0.006"/>
    <path style="fill:#000000;stroke:none;" d="M230.188,212.735l-0.003-0.002l-0.003,0.002l0.006,0z"/>
    <path style="fill:#000000;stroke:none;" d="M251.047,212.103l-20.64,0.65l0.005,0.151l-0.188-0.146l0.182-0.006l0-0.025l-0.219,0.006l-0.006,0l-0.166,0.005l-20.772,0.654c0,0.009,0,0.017,0,0.025c0.001,0.057,0.001,0.115,0.003,0.172
      c0.159,5.035,2.085,9.599,5.165,13.114c3.981,4.544,9.889,7.337,16.399,7.132c0.087-0.003,0.174-0.008,0.262-0.012c6.419-0.281,12.05-3.435,15.686-8.179c2.833-3.696,4.456-8.355,4.297-13.373c-0.001-0.057-0.005-0.114-0.007-0.171z"/>
    <path style="fill:#000000;stroke:none;" d="M230.413,212.905l-0.005-0.151l-0.182,0.006l0.188,0.146z"/>
    <path style="stroke-width:0.192;" d="M242.594,229.728c4.063-3.007,6.725-7.213,7.853-11.774c1.43-5.779,0.396-12.126-3.375-17.321c-3.761-5.179-9.455-8.125-15.375-8.567c-4.702-0.352-9.545,0.876-13.677,3.818c-0.007,0.005-0.014,0.01-0.021,0.015
      c-0.046,0.034-0.094,0.065-0.14,0.099c-4.077,2.96-6.77,7.117-7.948,11.64c-1.523,5.846-0.514,12.303,3.313,17.573c0.051,0.071,0.104,0.14,0.157,0.21c3.839,5.152,9.611,8.039,15.579,8.382c4.648,0.267,9.415-1.008,13.477-3.957
      c0.046-0.034,0.092-0.069,0.137-0.103"/>
    <radialGradient id="aigrd6" cx="244.0317" cy="197.1143" r="6.906" fx="244.0317" fy="197.1143" gradientUnits="userSpaceOnUse">
      <stop  offset="0" style="stop-color:#FFFFFF"/>
      <stop  offset="0.1292" style="stop-color:#FFFF00"/>
      <stop  offset="0.3483" style="stop-color:#FF9900"/>
      <stop  offset="0.7303" style="stop-color:#993300"/>
      <stop  offset="1" style="stop-color:#000000"/>
    </radialGradient>
    <path style="fill:url(#aigrd6);stroke:none;" d="M249.249,198.91c0,2.011-1.614,3.641-3.605,3.641c-1.991,0-3.604-1.63-3.604-3.641c0-2.01,1.613-3.64,3.604-3.64c1.991,0,3.605,1.63,3.605,3.64z"/>
    <path style="fill:#000000;stroke:none;" d="M225.722,115.159l20.64-0.651c0-0.009-0.001-0.017-0.001-0.025l-20.64,0.65l0,0.025z"/>
    <path style="fill:#000000;stroke:none;" d="M225.501,115.14l-0.002-0.002l-0.003,0.002l0.006,0z"/>
    <path style="fill:#000000;stroke:none;" d="M246.361,114.483c-0.206-5.051-2.19-9.616-5.329-13.111c-3.979-4.43-9.81-7.14-16.226-6.938c-6.398,0.202-12.033,3.258-15.725,7.906l16.417,12.798l0.002,0.002l-0.006,0l-0.166,0.005l-20.772,0.654
      c0,0.009,0,0.017,0,0.025c0.001,0.057,0.001,0.115,0.003,0.171c0.158,5.036,2.085,9.599,5.165,13.114c3.98,4.544,9.889,7.337,16.398,7.132c0.088-0.003,0.175-0.008,0.262-0.012c6.419-0.281,12.05-3.436,15.686-8.18c2.833-3.695,4.456-8.355,4.298-13.372
      c-0.002-0.057-0.005-0.114-0.008-0.171"/>
    <path style="fill:#000000;stroke:none;" d="M225.722,115.159l0.005,0.151l-0.187-0.146l0.182-0.005l0-0.025"/>
    <path style="fill:#000000;stroke:none;" d="M225.727,115.31l-0.005-0.151l-0.182,0.005l0.187,0.146z"/>
    <path style="stroke-width:0.192;" d="M237.908,132.132c4.063-3.007,6.725-7.213,7.853-11.774c1.43-5.78,0.397-12.126-3.375-17.321c-3.761-5.18-9.455-8.125-15.374-8.568c-4.702-0.352-9.545,0.876-13.677,3.819c-0.007,0.005-0.014,0.009-0.021,0.015
      c-0.047,0.033-0.094,0.064-0.141,0.099c-4.076,2.96-6.77,7.117-7.948,11.64c-1.523,5.846-0.514,12.303,3.313,17.573c0.051,0.071,0.104,0.14,0.157,0.21c3.839,5.152,9.611,8.039,15.579,8.382c4.648,0.267,9.415-1.008,13.477-3.957
      c0.046-0.034,0.092-0.069,0.137-0.103"/>
    <path style="fill:#000000;stroke:none;" d="M241.447,68.103c0-0.009,0-0.017-0.001-0.025c-0.206-5.051-2.19-9.616-5.329-13.111c-3.978-4.43-9.81-7.141-16.226-6.938c-6.398,0.202-12.033,3.257-15.724,7.906c-2.933,3.692-4.638,8.388-4.525,13.46
      c0,0.009,0,0.017,0,0.025c0.001,0.057,0.001,0.115,0.003,0.172c0.159,5.035,2.085,9.599,5.165,13.114c3.981,4.544,9.889,7.337,16.399,7.132c0.087-0.003,0.174-0.008,0.262-0.012c6.419-0.281,12.049-3.436,15.686-8.179c2.833-3.696,4.456-8.355,4.297-13.373
      c-0.001-0.057-0.005-0.113-0.007-0.171z"/>
    <path d="M228.04,61.725c0,0.602-3.346,1.09-7.474,1.09c-4.127,0-7.474-0.488-7.474-1.09"/>
    <path d="M229.757,64.233c0,0.995-4.13,1.801-9.225,1.801c-5.095,0-9.225-0.806-9.225-1.801"/>
    <path d="M225.729,77.929c0,0.295-2.305,0.534-5.147,0.534s-4.998-0.242-5.24-0.53"/>
    <path d="M230.707,66.987c0,1.292-4.552,2.339-10.167,2.339c-5.615,0-10.167-1.047-10.167-2.339"/>
    <path d="M230.789,70.244c0,1.238-4.581,2.241-10.232,2.241c-5.651,0-10.256-0.998-10.256-2.235"/>
    <path style="stroke-linecap:round;" d="M229.479,74.166c-0.211,0.884-3.993,1.524-8.906,1.524c-4.914,0-8.702-0.717-8.963-1.553"/>
    <path d="M225.729,77.929c0,0.295-2.305,0.534-5.147,0.534s-4.998-0.242-5.24-0.53"/>
    <path d="M230.881,68.934c0,5.762-4.625,10.434-10.331,10.434c-5.705,0-10.33-4.672-10.33-10.434c0-5.763,4.625-10.435,10.33-10.435c5.706,0,10.331,4.671,10.331,10.435z"/>
    <path d="M230.881,68.934c0,5.762-4.625,10.434-10.331,10.434c-5.705,0-10.33-4.672-10.33-10.434c0-5.763,4.625-10.435,10.33-10.435c5.706,0,10.331,4.671,10.331,10.435z"/>
    <path d="M220.55,59.093"/>
    <path d="M220.55,60.53"/>
    <path d="M230.881,68.934c0,5.762-4.625,10.434-10.331,10.434c-5.705,0-10.33-4.672-10.33-10.434c0-5.763,4.625-10.435,10.33-10.435c5.706,0,10.331,4.671,10.331,10.435z"/>
    <path d="M230.881,68.934c0,5.762-4.625,10.434-10.331,10.434c-5.705,0-10.33-4.672-10.33-10.434c0-5.763,4.625-10.435,10.33-10.435c5.706,0,10.331,4.671,10.331,10.435z"/>
    <path d="M220.55,59.093"/>
    <path d="M220.55,60.53"/>
    <g>
      <radialGradient id="aigrd7" cx="215.5757" cy="64.6035" r="16.6431" fx="215.5757" fy="64.6035" gradientUnits="userSpaceOnUse">
        <stop  offset="0" style="stop-color:#FFFFFF"/>
        <stop  offset="0.3146" style="stop-color:#00FFFF"/>
        <stop  offset="0.5899" style="stop-color:#6666FF"/>
        <stop  offset="1" style="stop-color:#000000"/>
      </radialGradient>
      <path style="fill:url(#aigrd7);stroke:none;" d="M230.881,68.934c0,5.762-4.625,10.434-10.331,10.434c-5.705,0-10.33-4.672-10.33-10.434c0-5.763,4.625-10.435,10.33-10.435c5.706,0,10.331,4.671,10.331,10.435z"/>
      <path d="M228.414,68.933c0,5.763-3.521,10.435-7.864,10.435c-4.343,0-7.864-4.672-7.864-10.435s3.521-10.434,7.864-10.434c4.343,0,7.864,4.671,7.864,10.434z"/>
      <path d="M225.157,59.627c0,0.295-2.063,0.535-4.607,0.535c-2.544,0-4.606-0.24-4.606-0.535"/>
      <path d="M224.396,68.934c0,5.762-1.618,10.434-3.614,10.434c-1.994,0-3.611-4.672-3.611-10.434c0-5.763,1.617-10.435,3.611-10.435c1.996,0,3.614,4.671,3.614,10.435z"/>
      <path d="M228.04,61.725c0,0.602-3.346,1.09-7.474,1.09c-4.127,0-7.474-0.488-7.474-1.09"/>
      <path d="M229.757,64.233c0,0.995-4.13,1.801-9.225,1.801c-5.095,0-9.225-0.806-9.225-1.801"/>
      <path d="M230.707,66.987c0,1.292-4.552,2.339-10.167,2.339c-5.615,0-10.167-1.047-10.167-2.339"/>
      <path d="M230.789,70.244c0,1.238-4.581,2.241-10.232,2.241c-5.651,0-10.256-0.998-10.256-2.235"/>
      <path style="stroke-linecap:round;" d="M229.479,74.166c-0.211,0.884-3.993,1.524-8.906,1.524c-4.914,0-8.702-0.717-8.963-1.553"/>
    </g>
    <path style="stroke-width:0.192;" d="M232.994,85.728c4.063-3.007,6.725-7.213,7.853-11.774c1.43-5.779,0.396-12.126-3.375-17.321c-3.761-5.179-9.455-8.125-15.375-8.567c-4.702-0.352-9.545,0.876-13.677,3.818c-0.007,0.005-0.014,0.01-0.021,0.015
      c-0.046,0.034-0.094,0.065-0.14,0.099c-4.077,2.96-6.77,7.117-7.948,11.64c-1.523,5.846-0.515,12.303,3.313,17.573c0.051,0.071,0.104,0.14,0.157,0.21c3.838,5.152,9.611,8.039,15.578,8.382c4.648,0.267,9.416-1.008,13.477-3.957
      c0.046-0.034,0.092-0.069,0.138-0.103"/>
    <radialGradient id="aigrd8" cx="198.0923" cy="67.4136" r="6.9063" fx="198.0923" fy="67.4136" gradientUnits="userSpaceOnUse">
      <stop  offset="0" style="stop-color:#FFFFFF"/>
      <stop  offset="0.1292" style="stop-color:#FFFF00"/>
      <stop  offset="0.3483" style="stop-color:#FF9900"/>
      <stop  offset="0.7303" style="stop-color:#993300"/>
      <stop  offset="1" style="stop-color:#000000"/>
    </radialGradient>
    <path style="fill:url(#aigrd8);stroke:none;" d="M203.31,69.21c0,2.011-1.614,3.641-3.605,3.641s-3.604-1.629-3.604-3.641c0-2.01,1.614-3.641,3.604-3.641s3.605,1.63,3.605,3.641z"/>
    <path style="fill:#000000;stroke:none;" d="M225.548,92.278"/>
    <path style="stroke-width:0.192;" d="M240.694,181.728c4.063-3.007,6.725-7.213,7.854-11.774c1.43-5.779,0.396-12.126-3.375-17.321c-3.761-5.179-9.455-8.125-15.374-8.567c-4.702-0.352-9.545,0.876-13.678,3.818c-0.006,0.005-0.014,0.01-0.021,0.015
      c-0.046,0.034-0.094,0.065-0.14,0.099c-4.077,2.96-6.77,7.117-7.948,11.64c-1.522,5.846-0.515,12.303,3.313,17.573c0.051,0.071,0.104,0.14,0.157,0.21c3.839,5.152,9.611,8.039,15.578,8.382c4.648,0.267,9.416-1.008,13.478-3.957
      c0.046-0.034,0.091-0.069,0.138-0.103"/>
    <g style="fill:#000000;stroke:none;">
      <path d="M249.148,164.103l-0.001-0.025c-0.206-5.051-2.19-9.616-5.329-13.111l-15.533,13.766l0.003,0.002l-0.006,0l-0.166,0.005l-20.773,0.654c0,0.009,0,0.017,0,0.025c0.001,0.057,0.001,0.115,0.003,0.172c0.159,5.035,2.085,9.599,5.164,13.114
        c3.981,4.544,9.889,7.337,16.399,7.132c0.088-0.003,0.175-0.008,0.262-0.012c6.419-0.281,12.049-3.435,15.686-8.179c2.832-3.696,4.456-8.355,4.297-13.373c-0.002-0.057-0.005-0.114-0.007-0.171z"/>
      <path d="M243.818,150.967c-3.896-4.338-9.569-7.026-15.829-6.945l0.635,20.41"/>
    </g>
    <g style="stroke-width:0.0628;">
      <g>
        <g>
          <g>
            <path d="M228.251,155.093"/>
            <path d="M233.429,173.929c0,0.295-2.304,0.534-5.147,0.534c-2.843,0-4.998-0.242-5.24-0.53"/>
            <path d="M238.104,168.038c0,1.107-4.413,2.006-9.855,2.006s-9.855-0.898-9.855-2.006"/>
            <path style="stroke-linecap:round;" d="M237.18,170.166c-0.211,0.884-3.992,1.524-8.906,1.524s-8.702-0.716-8.963-1.553"/>
            <path d="M235.787,172.055c-0.251,0.667-3.36,1.159-7.505,1.159s-7.142-0.573-7.545-1.119"/>
          </g>
        </g>
        <g>
          <g>
            <path d="M228.251,155.093"/>
            <path d="M233.429,173.929c0,0.295-2.304,0.534-5.147,0.534c-2.843,0-4.998-0.242-5.24-0.53"/>
            <path d="M238.104,168.038c0,1.107-4.413,2.006-9.855,2.006s-9.855-0.898-9.855-2.006"/>
            <path style="stroke-linecap:round;" d="M237.18,170.166c-0.211,0.884-3.992,1.524-8.906,1.524s-8.702-0.716-8.963-1.553"/>
            <path d="M235.787,172.055c-0.251,0.667-3.36,1.159-7.505,1.159s-7.142-0.573-7.545-1.119"/>
          </g>
        </g>
      </g>
    </g>
    <radialGradient id="aigrd9" cx="226.9829" cy="142.6826" r="6.906" fx="226.9829" fy="142.6826" gradientUnits="userSpaceOnUse">
      <stop  offset="0" style="stop-color:#FFFFFF"/>
      <stop  offset="0.1292" style="stop-color:#FFFF00"/>
      <stop  offset="0.3483" style="stop-color:#FF9900"/>
      <stop  offset="0.7303" style="stop-color:#993300"/>
      <stop  offset="1" style="stop-color:#000000"/>
    </radialGradient>
    <path style="fill:url(#aigrd9);stroke:none;" d="M232.2,144.479c0,2.011-1.614,3.641-3.605,3.641s-3.604-1.63-3.604-3.641s1.614-3.641,3.604-3.641s3.605,1.63,3.605,3.641z"/>
    <path style="fill:#000000;stroke:none;" d="M221.163,404.735l-0.003-0.002l-0.003,0.003l0.006,0z"/>
    <path style="fill:#000000;stroke:none;" d="M221.388,404.905l-0.005-0.151l-0.182,0.006l0.187,0.146z"/>
    <path style="fill:#000000;stroke:none;" d="M200.521,411.785v-0.004h-0.004l0.004,0.004z"/>
    <path style="fill:#000000;stroke:none;" d="M200.522,412.067l0.114-0.1l-0.12-0.137l0.006,0.237z"/>
    <path style="fill:#000000;stroke:none;" d="M209.227,418.706l15.734-13.944l-20.902,0.658c0.001,0.058,0.001,0.115,0.003,0.172c0.159,5.036,2.085,9.599,5.165,13.114z"/>
    <path style="stroke-width:0.192;" d="M237.41,421.728c4.063-3.007,6.725-7.214,7.853-11.774c1.43-5.779,0.396-12.126-3.375-17.321c-3.761-5.179-9.455-8.125-15.375-8.567c-4.702-0.352-9.545,0.876-13.677,3.818c-0.007,0.005-0.014,0.01-0.021,0.015
      c-0.047,0.034-0.094,0.065-0.141,0.099c-4.076,2.96-6.769,7.117-7.948,11.64c-1.522,5.846-0.514,12.303,3.313,17.573c0.052,0.071,0.104,0.14,0.157,0.21c3.838,5.152,9.611,8.038,15.578,8.382c4.648,0.267,9.416-1.008,13.477-3.957
      c0.046-0.034,0.092-0.069,0.138-0.103"/>
    <radialGradient id="aigrd10" cx="207.6416" cy="416.3706" r="6.9057" fx="207.6416" fy="416.3706" gradientUnits="userSpaceOnUse">
      <stop  offset="0" style="stop-color:#FFFFFF"/>
      <stop  offset="0.1292" style="stop-color:#FFFF00"/>
      <stop  offset="0.3483" style="stop-color:#FF9900"/>
      <stop  offset="0.7303" style="stop-color:#993300"/>
      <stop  offset="1" style="stop-color:#000000"/>
    </radialGradient>
    <path style="fill:url(#aigrd10);stroke:none;" d="M212.859,418.167c0,2.011-1.614,3.64-3.604,3.64c-1.991,0-3.605-1.629-3.605-3.64s1.614-3.641,3.605-3.641c1.99,0,3.604,1.63,3.604,3.641z"/>
    <path style="stroke:#FF0000;stroke-width:0.384;" d="M216.447,480.193c8.812-57.687,14.214-135.479,14.214-221.074c0-85.594-5.403-163.387-14.214-221.075"/>
    <path style="fill:#000000;stroke:none;" d="M283.306,51.643c-0.145,0-0.29,0.002-0.434,0.006c-9.023,0.229-16.268,7.616-16.268,16.695c0,9.127,7.323,16.543,16.414,16.697c0.096,0.001,0.191,0.003,0.287,0.003c9.223,0,16.701-7.477,16.701-16.701
      s-7.478-16.701-16.701-16.701z"/>
    <radialGradient id="aigrd11" cx="283.1621" cy="133.042" r="0.1015" fx="283.1621" fy="133.042" gradientUnits="userSpaceOnUse">
      <stop  offset="0" style="stop-color:#FFFFFF"/>
      <stop  offset="1" style="stop-color:#000000"/>
    </radialGradient>
    <path style="fill:url(#aigrd11);stroke:none;" d="M283.019,133.041c0.096,0.001,0.191,0.003,0.287,0.003c-0.096,0-0.191-0.001-0.287-0.005v0.002z"/>
    <radialGradient id="aigrd12" cx="275.8193" cy="108.8584" r="38.2768" fx="275.8193" fy="108.8584" gradientUnits="userSpaceOnUse">
      <stop  offset="0" style="stop-color:#FFFFFF"/>
      <stop  offset="1" style="stop-color:#000000"/>
    </radialGradient>
    <path style="fill:url(#aigrd12);stroke:none;" d="M272.188,116.344c0-9.079,4.823-16.466,10.83-16.695h-0.146c-9.023,0.229-16.268,7.616-16.268,16.695c0,9.127,7.323,16.543,16.414,16.697v-0.002c-6.007-0.229-10.83-7.616-10.83-16.695z"/>
    <path style="fill:#000000;stroke:none;" d="M283.306,99.643c-0.145,0-0.29,0.002-0.434,0.006h0.146c-6.007,0.229-10.83,7.616-10.83,16.695s4.823,16.467,10.83,16.695c0.096,0.004,0.191,0.005,0.287,0.005c9.223,0,16.701-7.477,16.701-16.701
      s-7.478-16.701-16.701-16.701z"/>
    <radialGradient id="aigrd13" cx="283.1621" cy="181.042" r="0.1015" fx="283.1621" fy="181.042" gradientUnits="userSpaceOnUse">
      <stop  offset="0" style="stop-color:#FFFFFF"/>
      <stop  offset="1" style="stop-color:#000000"/>
    </radialGradient>
    <path style="fill:url(#aigrd13);stroke:none;" d="M283.019,181.041c0.096,0.001,0.191,0.003,0.287,0.003c-0.096,0-0.191-0.001-0.287-0.005v0.002z"/>
    <path style="fill:#000000;stroke:none;" d="M283.306,147.643c-0.145,0-0.29,0.002-0.434,0.006h0.146v33.39c0.096,0.004,0.191,0.005,0.287,0.005c9.223,0,16.701-7.477,16.701-16.701s-7.478-16.701-16.701-16.701z"/>
    <radialGradient id="aigrd14" cx="272.1064" cy="156.8584" r="40.2495" fx="272.1064" fy="156.8584" gradientUnits="userSpaceOnUse">
      <stop  offset="0" style="stop-color:#FFFFFF"/>
      <stop  offset="1" style="stop-color:#000000"/>
    </radialGradient>
    <path style="fill:url(#aigrd14);stroke:none;" d="M282.872,147.649c-9.023,0.229-16.268,7.616-16.268,16.695c0,9.127,7.323,16.543,16.414,16.697v-0.002v-33.39h-0.146z"/>
    <path style="fill:#000000;stroke:none;" d="M283.306,195.643c-0.145,0-0.29,0.002-0.434,0.006h0.146c0.096-0.004,0.191-0.006,0.287-0.006c6.14,0,11.116,7.477,11.116,16.701s-4.977,16.701-11.116,16.701c9.223,0,16.701-7.477,16.701-16.701
      s-7.478-16.701-16.701-16.701z"/>
    <radialGradient id="aigrd15" cx="283.1621" cy="229.042" r="0.1015" fx="283.1621" fy="229.042" gradientUnits="userSpaceOnUse">
      <stop  offset="0" style="stop-color:#FFFFFF"/>
      <stop  offset="1" style="stop-color:#000000"/>
    </radialGradient>
    <path style="fill:url(#aigrd15);stroke:none;" d="M283.019,229.041c0.096,0.001,0.191,0.003,0.287,0.003c-0.096,0-0.191-0.001-0.287-0.005v0.002z"/>
    <radialGradient id="aigrd16" cx="275.9287" cy="204.855" r="46.1937" fx="275.9287" fy="204.855" gradientUnits="userSpaceOnUse">
      <stop  offset="0" style="stop-color:#FFFFFF"/>
      <stop  offset="1" style="stop-color:#000000"/>
    </radialGradient>
    <path style="fill:url(#aigrd16);stroke:none;" d="M283.306,195.643c-0.096,0-0.191,0.002-0.287,0.006h-0.146c-9.023,0.229-16.268,7.616-16.268,16.695c0,9.127,7.323,16.543,16.414,16.697v-0.002c0.096,0.004,0.191,0.005,0.287,0.005
      c6.14,0,11.116-7.477,11.116-16.701s-4.977-16.701-11.116-16.701z"/>
    <radialGradient id="aigrd17" cx="277.8013" cy="252.855" r="49.8152" fx="277.8013" fy="252.855" gradientUnits="userSpaceOnUse">
      <stop  offset="0" style="stop-color:#FFFFFF"/>
      <stop  offset="1" style="stop-color:#000000"/>
    </radialGradient>
    <path style="fill:url(#aigrd17);stroke:none;" d="M283.306,243.643c-0.145,0-0.29,0.002-0.434,0.006c-9.023,0.229-16.268,7.616-16.268,16.695c0,9.127,7.323,16.543,16.414,16.697c0.096,0.001,0.191,0.003,0.287,0.003c9.223,0,16.701-7.477,16.701-16.701
      s-7.478-16.701-16.701-16.701z"/>
    <radialGradient id="aigrd18" cx="283.1621" cy="325.042" r="0.1015" fx="283.1621" fy="325.042" gradientUnits="userSpaceOnUse">
      <stop  offset="0" style="stop-color:#FFFFFF"/>
      <stop  offset="1" style="stop-color:#000000"/>
    </radialGradient>
    <path style="fill:url(#aigrd18);stroke:none;" d="M283.019,325.041c0.096,0.001,0.191,0.003,0.287,0.003c-0.096,0-0.191-0.001-0.287-0.005v0.002z"/>
    <path style="fill:#000000;stroke:none;" d="M272.188,308.344c0-9.079,4.823-16.466,10.83-16.695h-0.146c-9.023,0.229-16.268,7.616-16.268,16.695c0,9.127,7.323,16.543,16.414,16.697v-0.002c-6.007-0.229-10.83-7.616-10.83-16.695z"/>
    <radialGradient id="aigrd19" cx="281.5132" cy="300.855" r="46.1937" fx="281.5132" fy="300.855" gradientUnits="userSpaceOnUse">
      <stop  offset="0" style="stop-color:#FFFFFF"/>
      <stop  offset="1" style="stop-color:#000000"/>
    </radialGradient>
    <path style="fill:url(#aigrd19);stroke:none;" d="M283.306,291.643c-0.145,0-0.29,0.002-0.434,0.006h0.146c-6.007,0.229-10.83,7.616-10.83,16.695s4.823,16.467,10.83,16.695c0.096,0.004,0.191,0.005,0.287,0.005c9.223,0,16.701-7.477,16.701-16.701
      s-7.478-16.701-16.701-16.701z"/>
    <radialGradient id="aigrd20" cx="283.1621" cy="373.0415" r="0.1015" fx="283.1621" fy="373.0415" gradientUnits="userSpaceOnUse">
      <stop  offset="0" style="stop-color:#FFFFFF"/>
      <stop  offset="1" style="stop-color:#000000"/>
    </radialGradient>
    <path style="fill:url(#aigrd20);stroke:none;" d="M283.019,373.041c0.096,0.001,0.191,0.003,0.287,0.003c-0.096,0-0.191-0.001-0.287-0.005v0.002z"/>
    <radialGradient id="aigrd21" cx="272.0557" cy="348.8584" r="46.3653" fx="272.0557" fy="348.8584" gradientUnits="userSpaceOnUse">
      <stop  offset="0" style="stop-color:#FFFFFF"/>
      <stop  offset="1" style="stop-color:#000000"/>
    </radialGradient>
    <path style="fill:url(#aigrd21);stroke:none;" d="M283.306,339.643c-0.145,0-0.29,0.002-0.434,0.006h0.146v33.39c0.096,0.003,0.191,0.005,0.287,0.005c9.223,0,16.701-7.477,16.701-16.7s-7.478-16.701-16.701-16.701z"/>
    <path style="fill:#000000;stroke:none;" d="M272.188,356.344c0-9.079,4.823-16.466,10.83-16.695h-0.146c-9.023,0.229-16.268,7.616-16.268,16.695c0,9.127,7.323,16.543,16.414,16.697v-0.002c-6.007-0.229-10.83-7.616-10.83-16.695z"/>
    <path style="fill:#000000;stroke:none;" d="M272.188,356.344c0,9.079,4.823,16.467,10.83,16.695v-33.39c-6.007,0.229-10.83,7.616-10.83,16.695z"/>
    <radialGradient id="aigrd22" cx="275.8184" cy="396.8584" r="38.278" fx="275.8184" fy="396.8584" gradientUnits="userSpaceOnUse">
      <stop  offset="0" style="stop-color:#FFFFFF"/>
      <stop  offset="1" style="stop-color:#000000"/>
    </radialGradient>
    <path style="fill:url(#aigrd22);stroke:none;" d="M283.306,387.643c-0.145,0-0.29,0.002-0.434,0.006h0.146c0.096-0.004,0.191-0.006,0.287-0.006c6.14,0,11.116,7.477,11.116,16.701c0,9.223-4.977,16.7-11.116,16.7c9.223,0,16.701-7.477,16.701-16.7
      c0-9.224-7.478-16.701-16.701-16.701z"/>
    <radialGradient id="aigrd23" cx="283.1621" cy="421.0415" r="0.1015" fx="283.1621" fy="421.0415" gradientUnits="userSpaceOnUse">
      <stop  offset="0" style="stop-color:#FFFFFF"/>
      <stop  offset="1" style="stop-color:#000000"/>
    </radialGradient>
    <path style="fill:url(#aigrd23);stroke:none;" d="M283.019,421.041c0.096,0.001,0.191,0.003,0.287,0.003c-0.096,0-0.191-0.001-0.287-0.005v0.002z"/>
    <path style="fill:#000000;stroke:none;" d="M283.306,387.643c-0.096,0-0.191,0.002-0.287,0.006h-0.146c-9.023,0.229-16.268,7.616-16.268,16.695c0,9.127,7.323,16.543,16.414,16.697v-0.002c0.096,0.003,0.191,0.005,0.287,0.005c6.14,0,11.116-7.477,11.116-16.7
      c0-9.224-4.977-16.701-11.116-16.701z"/>
    <path style="fill:#000000;stroke:none;" d="M283.306,435.643c-0.145,0-0.29,0.002-0.434,0.006c-9.023,0.23-16.268,7.616-16.268,16.695c0,9.127,7.323,16.543,16.414,16.697c0.096,0.001,0.191,0.003,0.287,0.003c9.223,0,16.701-7.477,16.701-16.7
      c0-9.224-7.478-16.701-16.701-16.701z"/>
    <radialGradient id="aigrd24" cx="207.6929" cy="100.8037" r="6.906" fx="207.6929" fy="100.8037" gradientUnits="userSpaceOnUse">
      <stop  offset="0" style="stop-color:#FFFFFF"/>
      <stop  offset="0.1292" style="stop-color:#FFFF00"/>
      <stop  offset="0.3483" style="stop-color:#FF9900"/>
      <stop  offset="0.7303" style="stop-color:#993300"/>
      <stop  offset="1" style="stop-color:#000000"/>
    </radialGradient>
    <path style="fill:url(#aigrd24);stroke:none;" d="M212.91,102.6c0,2.011-1.614,3.641-3.604,3.641c-1.991,0-3.605-1.63-3.605-3.641c0-2.01,1.614-3.641,3.605-3.641c1.99,0,3.604,1.63,3.604,3.641z"/>
    <radialGradient id="aigrd25" cx="249.8892" cy="257.9292" r="6.906" fx="249.8892" fy="257.9292" gradientUnits="userSpaceOnUse">
      <stop  offset="0" style="stop-color:#FFFFFF"/>
      <stop  offset="0.1292" style="stop-color:#FFFF00"/>
      <stop  offset="0.3483" style="stop-color:#FF9900"/>
      <stop  offset="0.7303" style="stop-color:#993300"/>
      <stop  offset="1" style="stop-color:#000000"/>
    </radialGradient>
    <path style="fill:url(#aigrd25);stroke:none;" d="M255.106,259.726c0,2.011-1.614,3.641-3.605,3.641s-3.604-1.629-3.604-3.641c0-2.01,1.614-3.641,3.604-3.641s3.605,1.63,3.605,3.641z"/>
    <radialGradient id="aigrd26" cx="197.708" cy="451.4136" r="6.906" fx="197.708" fy="451.4136" gradientUnits="userSpaceOnUse">
      <stop  offset="0" style="stop-color:#FFFFFF"/>
      <stop  offset="0.1292" style="stop-color:#FFFF00"/>
      <stop  offset="0.3483" style="stop-color:#FF9900"/>
      <stop  offset="0.7303" style="stop-color:#993300"/>
      <stop  offset="1" style="stop-color:#000000"/>
    </radialGradient>
    <path style="fill:url(#aigrd26);stroke:none;" d="M202.925,453.209c0,2.011-1.613,3.641-3.604,3.641c-1.991,0-3.604-1.63-3.604-3.641c0-2.01,1.614-3.64,3.604-3.64c1.991,0,3.604,1.63,3.604,3.64z"/>

        <switch>
            <g systemLanguage="fr">
    <g transform="translate(340, 0)" fill="white" stroke="none" >
    <text x="0" y="455.0063" >Nouvelle <tspan x="0" y="465.0063">lune</tspan></text>
    <text x="0" y="407.3906">Premier <tspan x="0" y="417.3906">croissant</tspan></text>
    <text x="0" y="356.3438" >Premier <tspan x="0" y="366.3438">quartier</tspan></text>
    <text x="0" y="306.0146" >Lune <tspan x="0" y="316.0146">gibbeuse</tspan></text>
    <text x="0" y="263.7744" >Pleine <tspan x="0" y="273.7744">lune</tspan></text>
    <text x="0" y="212.3188" >Lune <tspan x="0" y="222.3188">gibbeuse</tspan></text>
    <text x="0" y="165.4707" >Dernier <tspan x="0" y="175.4707">quartier</tspan></text>
    <text x="0" y="113.2466" >Dernier <tspan x="0" y="123.2466">croissant</tspan></text>
    <text x="0" y="67.1665" >Nouvelle <tspan x="0" y="77.1665">lune</tspan></text>
    </g>
    <text x="89.7632" y="297.918" text-anchor="start" fill="black">Soleil</text>
    <text x="180" y="427" fill="white" stroke="none" text-anchor="start" >Lune</text>
    <text x="230.2129" y="393" fill="white" stroke="none" text-anchor="start" >Terre</text>
            </g>

            <g systemLanguage="en">
    <g transform="translate(340, 0)" fill="white" stroke="none" >
    <text x="0" y="455.0063">New <tspan x="0" y="465.0063">moon</tspan></text>
    <text x="0" y="407.3906">Waxing <tspan x="0" y="417.3906">crescent</tspan></text>
    <text x="0" y="356.3438">Waxing <tspan x="0" y="366.3438">quarter</tspan></text>
      <text x="0" y="306.0146">Near <tspan x="0" y="316.0146">full</tspan></text> 
    <text x="0" y="263.7744">Full <tspan x="0" y="273.7744">moon</tspan></text>
    <text x="0" y="212.3188">Near <tspan x="0" y="222.3188">full</tspan></text> 
    <text x="0" y="165.4707">Waning <tspan x="0" y="175.4707">quarter</tspan></text>
    <text x="0" y="113.2466">Waning <tspan x="0" y="123.2466">crescent</tspan></text>
    <text x="0" y="67.1665" >New <tspan x="0" y="77.1665">moon</tspan></text>
    </g>
    <text x="89.7632" y="297.918" text-anchor="start" fill="black">Sun</text>
    <text x="180" y="427" fill="white" stroke="none" text-anchor="start" >Moon</text>
    <text x="230.2129" y="393" fill="white" stroke="none" text-anchor="start" >Earth</text>
            </g>

            <g systemLanguage="ja">
    
    <g transform="translate(330, -10)" fill="white" stroke="none" >
             <use transform="scale(2)" xlink:href="#New_Moon2" y="33" />
             <use transform="scale(2)" xlink:href="#Waning_Crescent" y="56" />
             <use transform="scale(2)" xlink:href="#Waning_Quarter" y="82" />
             <use transform="scale(2)" xlink:href="#Near_Full_After_Full" y="106" />
             <use transform="scale(2)" xlink:href="#Full_Moon" y="130" />
             <use transform="scale(2)" xlink:href="#Near_Full_Before_Full" y="154" />
             <use transform="scale(2)" xlink:href="#Waxing_Quarter" y="178" />
             <use transform="scale(2)" xlink:href="#Waxing_Crescent" y="202" />
             <use transform="scale(2)" xlink:href="#New_Moon" y="227" />
    </g>

        <g filter="url(#bgRect)">
    <g transform="translate(-45, 150)" fill="white" stroke="none" font-size="16" >
            <use transform="scale(6)" xlink:href="#The_Phases_Of_The_Moon" />
    </g>
        </g>

    <defs>
  <g id="Japaneese_Text" style="fill-rule:nonzero;clip-rule:nonzero;stroke:#000000;stroke-width:0.1344;stroke-linecap:round;stroke-linejoin:round;stroke-miterlimit:4;">
    <g id="The_Phases_Of_The_Moon" style="fill-rule:evenodd;clip-rule:evenodd;stroke-miterlimit:10;">
      <path d="M21.347,5.421c-0.896,0-1.747,0-2.598,0c0,1.03-0.448,1.972-1.209,2.867c-0.18-0.224-0.314-0.448-0.493-0.672c0.761-0.582,1.12-1.523,1.12-2.733c0-1.434,0-2.867,0-4.3c1.254,0,2.464,0,3.718,0c0,2.329,0,4.613,0,6.943c0,0.403-0.179,0.538-0.448,0.538
        c-0.224,0-0.448,0-0.672,0C20.72,7.84,20.675,7.571,20.63,7.303c0.224,0,0.403,0,0.583,0c0.09,0,0.134-0.045,0.134-0.135c0-0.582,0-1.165,0-1.747z M18.749,4.659c0.851,0,1.702,0,2.598,0c0-0.403,0-0.851,0-1.254c-0.896,0-1.747,0-2.598,0
        c0,0.403,0,0.851,0,1.254z M18.749,2.644c0.851,0,1.702,0,2.598,0c0-0.448,0-0.852,0-1.299c-0.896,0-1.747,0-2.598,0c0,0.447,0,0.851,0,1.299z"/>
      <path d="M28.38,1.12c-0.179,0.941-0.538,1.748-1.075,2.509c-0.09-0.224-0.225-0.447-0.314-0.672c0.449-0.582,0.852-1.479,1.12-2.777c0.179,0.045,0.359,0.089,0.538,0.135c0.09,0.089,0.09,0.134-0.045,0.179v0.045c0.403,1.075,0.941,1.837,1.523,2.284
        c-0.09,0.27-0.179,0.493-0.269,0.762c-0.672-0.762-1.209-1.568-1.479-2.464z M27.037,2.195c0,0.18,0,0.358,0,0.583c-1.076,0-2.196,0-3.271,0c0-0.225,0-0.403,0-0.583c0.18,0,0.358,0,0.538,0c0-0.493,0-0.94,0-1.434c0.179,0,0.313,0,0.448,0
        c0.135,0.045,0.179,0.09,0.045,0.224c0,0.403,0,0.807,0,1.21c0.18,0,0.314,0,0.493,0c0-0.672,0-1.344,0-2.061c0.179,0,0.313,0,0.448,0c0.134,0.045,0.179,0.134,0.045,0.224c0,0.18,0,0.403,0,0.583c0.313,0,0.627,0,0.985,0c0,0.179,0,0.357,0,0.537
        c-0.358,0-0.672,0-0.985,0c0,0.27,0,0.493,0,0.717c0.403,0,0.851,0,1.254,0z M26.186,6.854c-0.135-0.313-0.359-0.582-0.583-0.896c0,0.402,0,0.851,0,1.254c-0.134,0-0.269,0-0.403,0c0-0.358,0-0.717,0-1.075c-0.134,0.313-0.313,0.582-0.537,0.807
        c-0.045-0.18-0.09-0.358-0.135-0.538c0.269-0.313,0.493-0.717,0.672-1.21c-0.269,0-0.493,0-0.762,0c0,0.718,0,1.479,0,2.24c0.672,0,1.344,0,1.972,0c0-0.761,0-1.522,0-2.24c-0.269,0-0.538,0-0.807,0c0,0.09,0,0.135,0,0.225c0.313,0.179,0.538,0.403,0.761,0.807
        c-0.044,0.179-0.09,0.403-0.179,0.627z M29.142,2.957c0,0.179,0,0.358,0,0.538c-0.448,0-0.896,0-1.344,0c0-0.18,0-0.359,0-0.538c0.448,0,0.896,0,1.344,0z M27.306,4.391c0.806,0,1.612,0,2.418,0c0,0.852,0,1.702,0,2.554c0,0.313-0.134,0.492-0.358,0.492
        c-0.135,0-0.269,0-0.403,0c-0.045-0.179-0.09-0.358-0.09-0.537c0.09,0,0.18,0,0.269,0s0.089-0.045,0.089-0.135c0-0.627,0-1.209,0-1.836c-0.269,0-0.538,0-0.761,0c0,1.119,0,2.194,0,3.314c-0.18,0-0.313,0-0.493,0c0-1.12,0-2.195,0-3.314c-0.224,0-0.448,0-0.671,0
        c0-0.18,0-0.359,0-0.538z M26.41,8.198c0-0.09,0-0.134,0-0.224c-0.627,0-1.299,0-1.972,0c0,0.09,0,0.18,0,0.269c-0.134,0-0.313,0-0.448,0c0-1.747,0-3.539,0-5.286c0.134,0,0.313,0,0.448,0c0.135,0.045,0.135,0.135,0,0.225c0,0.537,0,1.074,0,1.612
        c0.269,0,0.538,0,0.762,0c0-0.628,0-1.255,0-1.837c0.134,0,0.269,0,0.358,0c0.135,0,0.18,0.089,0.045,0.179c0,0.538,0,1.076,0,1.658c0.269,0,0.538,0,0.807,0c0-0.493,0-0.941,0-1.434c0,0.045-0.045,0.089-0.045,0.089c-0.09,0.27-0.179,0.627-0.313,1.03
        c-0.09-0.044-0.224-0.089-0.358-0.134c0.089-0.358,0.224-0.717,0.313-1.21c0.134,0.046,0.268,0.09,0.403,0.135c0-0.089,0-0.179,0-0.313c0.179,0,0.313,0,0.447,0c0.134,0.045,0.18,0.135,0.045,0.225c0,1.657,0,3.359,0,5.017c-0.179,0-0.313,0-0.493,0z
         M24.841,4.569c-0.089-0.447-0.178-0.851-0.313-1.164c0.09-0.09,0.18-0.135,0.269-0.224c0.18,0.268,0.269,0.671,0.358,1.164c-0.089,0.09-0.224,0.134-0.314,0.224z"/>
    </g>
    <g id="New_Moon" style="fill-rule:evenodd;clip-rule:evenodd;stroke-miterlimit:10;">
      <path d="M20.003,7.594c0.717-0.538,1.12-1.434,1.12-2.644c0-1.388,0-2.732,0-4.076c0.18,0.045,0.358,0.089,0.583,0.134c0.492-0.179,0.985-0.403,1.478-0.582c0.134,0.224,0.269,0.448,0.403,0.717c0,0.135-0.044,0.18-0.179,0.045
        c-0.582,0.135-1.165,0.269-1.747,0.448c0,0.492,0,0.985,0,1.523c0.717,0,1.434,0,2.15,0c0,0.224,0,0.403,0,0.627c-0.268,0-0.537,0-0.806,0c0,1.478,0,2.956,0,4.435c-0.179,0-0.358,0-0.538,0c0-1.479,0-2.957,0-4.435c-0.269,0-0.537,0-0.806,0
        c0,0.447,0,0.896,0,1.344c0,1.389-0.448,2.419-1.344,3.136c-0.134-0.224-0.224-0.448-0.314-0.672z M19.466,8.266c-0.179,0-0.359,0-0.538,0c0-0.717,0-1.434,0-2.15c-0.313,0.627-0.627,1.12-0.941,1.479c-0.134-0.224-0.313-0.448-0.447-0.627
        c0.537-0.493,0.94-1.076,1.298-1.793c-0.358,0-0.761,0-1.12,0c0-0.224,0-0.447,0-0.671c0.403,0,0.807,0,1.21,0c0-0.27,0-0.493,0-0.763c-0.448,0-0.941,0-1.388,0c0-0.224,0-0.447,0-0.671c0.627,0,1.254,0,1.926,0c0.089-0.403,0.179-0.852,0.268-1.255
        c-0.671,0-1.344,0-2.016,0c0-0.224,0-0.448,0-0.672c0.403,0,0.807,0,1.21,0c0-0.358,0-0.672,0-0.985c0.179,0,0.359,0,0.538,0c0.134,0,0.134,0.09,0,0.179c0,0.269,0,0.538,0,0.807c0.403,0,0.806,0,1.209,0c0,0.224,0,0.448,0,0.672c-0.134,0-0.224,0-0.358,0
        c-0.134,0.403-0.269,0.852-0.359,1.255c0.269,0,0.583,0,0.852,0c0,0.224,0,0.447,0,0.671c-0.448,0-0.896,0-1.344,0c0,0.27,0,0.493,0,0.763c0.403,0,0.806,0,1.209,0c0,0.224,0,0.447,0,0.671c-0.403,0-0.806,0-1.209,0c0,0.136,0,0.225,0,0.313
        c0.268,0.136,0.627,0.359,1.075,0.763c-0.09,0.224-0.224,0.447-0.313,0.717c-0.269-0.359-0.493-0.627-0.761-0.807c0,0.717,0,1.389,0,2.105z M18.39,2.979c-0.089-0.313-0.179-0.627-0.313-0.94c0.179-0.045,0.358-0.135,0.538-0.225
        c0.135,0.358,0.224,0.672,0.313,0.985c-0.179,0.045-0.358,0.135-0.538,0.18z"/>
      <path d="M29.097,5.398c-0.851,0-1.703,0-2.598,0c0,1.03-0.403,1.972-1.209,2.867c-0.135-0.224-0.313-0.448-0.449-0.672c0.717-0.627,1.12-1.523,1.12-2.777c0-1.434,0-2.867,0-4.301c1.21,0,2.465,0,3.673,0c0,2.329,0,4.658,0,6.943c0,0.403-0.134,0.583-0.447,0.583
        c-0.224,0-0.448,0-0.672,0c0-0.27-0.044-0.538-0.089-0.762c0.178,0,0.358,0,0.582,0c0.09,0,0.09-0.045,0.09-0.18c0-0.537,0-1.12,0-1.702z M26.499,4.637c0.896,0,1.747,0,2.598,0c0-0.447,0-0.851,0-1.299c-0.851,0-1.703,0-2.598,0c0,0.448,0,0.852,0,1.299z
         M26.499,2.576c0.896,0,1.747,0,2.598,0c0-0.403,0-0.852,0-1.254c-0.851,0-1.703,0-2.598,0c0,0.402,0,0.851,0,1.254z"/>
    </g>
    <g id="Waning_Crescent" style="fill-rule:evenodd;clip-rule:evenodd;stroke-miterlimit:10;">
      <path d="M19.51,0.896c0,0.224,0,0.493,0,0.762c-1.613,0-3.226,0-4.883,0c0-0.269,0-0.538,0-0.762c1.658,0,3.271,0,4.883,0z M19.152,4.346c-1.389,0-2.778,0-4.167,0c0-0.269,0-0.538,0-0.806c1.388,0,2.777,0,4.167,0c0,0.268,0,0.537,0,0.806z M14.09,6.406
        c1.971,0,3.942,0,5.913,0c0,0.27,0,0.538,0,0.762c-1.971,0-3.942,0-5.913,0c0-0.224,0-0.492,0-0.762z"/>
      <path d="M22.557,7.571c-0.179,0-0.403,0-0.627,0c0-2.284,0-4.524,0-6.81c1.434,0,2.867,0,4.3,0c0,2.24,0,4.436,0,6.675c-0.224,0-0.403,0-0.627,0c0-0.179,0-0.313,0-0.492c-1.03,0-2.016,0-3.046,0c0,0.224,0,0.403,0,0.627z M25.603,3.45c0-0.673,0-1.344,0-2.017
        c-1.03,0-2.016,0-3.046,0c0,0.673,0,1.344,0,2.017c1.03,0,2.016,0,3.046,0z M25.603,6.272c0-0.717,0-1.435,0-2.151c-1.03,0-2.016,0-3.046,0c0,0.717,0,1.435,0,2.151c1.03,0,2.016,0,3.046,0z"/>
      <path d="M32.547,5.197c-0.896,0-1.747,0-2.598,0c0,1.03-0.448,1.971-1.209,2.867c-0.18-0.225-0.313-0.448-0.493-0.672c0.761-0.583,1.12-1.523,1.12-2.733c0-1.433,0-2.866,0-4.301c1.254,0,2.464,0,3.718,0c0,2.285,0,4.615,0,6.944c0,0.358-0.179,0.537-0.493,0.537
        c-0.179,0-0.403,0-0.627,0c-0.045-0.224-0.09-0.492-0.134-0.762c0.224,0,0.403,0,0.583,0c0.09,0,0.134-0.044,0.134-0.134c0-0.583,0-1.165,0-1.747z M29.949,4.436c0.851,0,1.702,0,2.598,0c0-0.403,0-0.852,0-1.255c-0.896,0-1.747,0-2.598,0
        c0,0.403,0,0.852,0,1.255z M29.949,2.374c0.851,0,1.702,0,2.598,0c0-0.402,0-0.851,0-1.254c-0.896,0-1.747,0-2.598,0c0,0.403,0,0.852,0,1.254z"/>
    </g>
    <g id="Waning_Quarter" style="fill-rule:evenodd;clip-rule:evenodd;stroke-miterlimit:10;">
      <path d="M19.42,6.811c0-2.106,0-4.167,0-6.228c0.224,0,0.403,0,0.627,0c0.179,0,0.179,0.135,0,0.269c0,0.672,0,1.344,0,2.061c0.762,0,1.479,0,2.24,0c0,0.225,0,0.493,0,0.762c-0.761,0-1.478,0-2.24,0c0,1.03,0,2.106,0,3.136c0.985,0,1.926,0,2.867,0
        c0,0.268,0,0.492,0,0.761c-1.971,0-3.942,0-5.958,0c0-0.269,0-0.493,0-0.761c0.851,0,1.658,0,2.464,0z"/>
      <path d="M25.917,6.721c-0.045,0.627-0.09,0.985-0.224,1.254c-0.09,0.224-0.313,0.313-0.538,0.313c-0.269,0-0.492,0-0.761,0c0-0.268-0.044-0.537-0.044-0.761c0.224,0,0.447,0,0.716,0c0.134,0,0.224-0.135,0.269-0.359c0.045-0.313,0.045-0.627,0.045-0.896
        c0.044-0.358,0.044-0.717,0.044-1.075c-0.269,0-0.538,0-0.807,0c-0.044,0.134-0.044,0.269-0.044,0.448c-0.224,0-0.403,0-0.583,0c0.09-1.03,0.179-2.061,0.224-3.091c0.403,0,0.852,0,1.255,0c0-0.403,0-0.806,0-1.209c-0.493,0-0.986,0-1.479,0
        c0-0.224,0-0.448,0-0.672c0.672,0,1.344,0,2.016,0c0,0.941,0,1.926,0,2.868c-0.18,0-0.359,0-0.538,0c0-0.09,0-0.179,0-0.314c-0.269,0-0.493,0-0.762,0c0,0.449-0.044,0.852-0.09,1.3c0.493,0,0.94,0,1.389,0c-0.045,0.717-0.045,1.479-0.09,2.195z M29.456,3.809
        c-0.538,1.12-1.21,2.24-2.016,3.36c0.627-0.09,1.209-0.134,1.792-0.179c-0.089-0.314-0.269-0.717-0.492-1.165c0.179-0.134,0.358-0.224,0.537-0.358c0.358,0.672,0.717,1.479,0.941,2.419c-0.224,0.135-0.403,0.224-0.627,0.313c-0.044-0.224-0.134-0.448-0.179-0.671
        c-0.985,0.178-1.971,0.313-2.912,0.447c-0.045,0.18-0.135,0.224-0.179,0.09c-0.045-0.269-0.045-0.583-0.09-0.896c0.18,0,0.313,0,0.493,0c0.179-0.179,0.537-0.717,0.986-1.523c-0.403-0.537-0.852-0.985-1.345-1.433c0.135-0.18,0.225-0.358,0.359-0.583
        c0.089,0.09,0.224,0.18,0.313,0.269c0.313-0.537,0.627-1.12,0.806-1.703c-0.493,0-1.03,0-1.523,0c0-0.224,0-0.447,0-0.671c0.493,0,0.986,0,1.478,0c0-0.448,0-0.941,0-1.389c0.179,0,0.359,0,0.538,0c0.134,0.045,0.134,0.09,0,0.224c0,0.403,0,0.762,0,1.165
        c0.582,0,1.165,0,1.702,0c0,0.224,0,0.448,0,0.671c-0.627,0-1.209,0-1.836,0c0.089,0.045,0.179,0.135,0.269,0.225c0.089,0.089,0.044,0.134-0.09,0.134c-0.313,0.671-0.627,1.254-0.896,1.792c0.225,0.225,0.448,0.448,0.627,0.672
        c0.314-0.538,0.583-1.12,0.896-1.836c0.18,0.134,0.359,0.313,0.538,0.447c0.089,0.09,0.089,0.135-0.089,0.18z"/>
    </g>
    <g id="Near_Full_Before_Full" style="fill-rule:evenodd;clip-rule:evenodd;stroke-miterlimit:10;">
      <path d="M16.106,3.338c0-0.986,0-1.971,0-2.957c0.224,0,0.403,0,0.627,0c0.179,0.045,0.179,0.18,0,0.313c0,0.852,0,1.747,0,2.644c0.896,0,1.792,0,2.688,0c0,0.269,0,0.493,0,0.762c-0.896,0-1.792,0-2.688,0c0,1.344,0,2.644,0,3.987c-0.224,0-0.403,0-0.627,0
        c0-1.344,0-2.644,0-3.987c-0.852,0-1.748,0-2.599,0c0-0.269,0-0.493,0-0.762c0.851,0,1.747,0,2.599,0z"/>
      <path d="M25.961,1.054c0,0.268,0,0.537,0,0.806c-1.612,0-3.27,0-4.883,0c0-0.269,0-0.538,0-0.806c1.613,0,3.271,0,4.883,0z M25.558,4.547c-1.388,0-2.732,0-4.121,0c0-0.269,0-0.537,0-0.806c1.389,0,2.733,0,4.121,0c0,0.269,0,0.537,0,0.806z M20.541,6.608
        c1.972,0,3.942,0,5.914,0c0,0.269,0,0.492,0,0.762c-1.971,0-3.942,0-5.914,0c0-0.27,0-0.493,0-0.762z"/>
      <path d="M28.918,8.221c-0.179,0-0.358,0-0.538,0c0-1.164,0-2.329,0-3.539c-0.269,0.358-0.493,0.627-0.717,0.852C27.529,5.354,27.44,5.13,27.35,4.95c0.717-0.762,1.299-1.747,1.657-3.091c-0.493,0-0.985,0-1.523,0c0-0.225,0-0.448,0-0.672c0.896,0,1.792,0,2.733,0
        c0-0.358,0-0.672,0-1.03c0.179,0,0.313,0,0.493,0c0.134,0.044,0.179,0.09,0.044,0.224c0,0.27,0,0.537,0,0.807c0.896,0,1.792,0,2.688,0c0,0.224,0,0.447,0,0.672c-0.896,0-1.837,0-2.777,0c0.134,0.089,0.313,0.135,0.448,0.225c0.09,0.134,0.044,0.134-0.09,0.179
        c-0.089,0.269-0.134,0.448-0.179,0.627c0.493,0,1.03,0,1.568,0c0.044-0.045,0.09-0.089,0.134-0.179c0.134,0.134,0.269,0.224,0.403,0.313c0.134,0.134,0.134,0.179,0,0.179c-0.314,1.344-0.672,2.285-1.12,3.047c0.448,0.537,1.075,0.896,1.836,1.164
        c-0.089,0.27-0.179,0.493-0.269,0.763c-0.717-0.313-1.388-0.763-1.971-1.39c-0.583,0.762-1.254,1.21-2.106,1.479c-0.044-0.225-0.134-0.492-0.179-0.717c0.717-0.179,1.344-0.538,1.881-1.209c-0.313-0.493-0.627-0.986-0.851-1.613
        c-0.224,0.537-0.493,0.94-0.717,1.21c-0.135-0.18-0.225-0.359-0.359-0.583c0.672-0.851,1.165-2.061,1.389-3.494c-0.449,0-0.896,0-1.344,0c0.134,0.089,0.314,0.179,0.448,0.313c0.044,0.09,0.044,0.135-0.089,0.179c-0.18,0.583-0.403,1.031-0.583,1.345
        c0,0.045,0.045,0.045,0.045,0.089c0.044,0.09,0.044,0.135-0.045,0.225c0,1.389,0,2.822,0,4.211z M30.441,4.1c0.135,0.537,0.448,1.075,0.941,1.747c0.358-0.627,0.671-1.389,0.851-2.375c-0.493,0-1.03,0-1.568,0c-0.09,0.225-0.135,0.448-0.225,0.628z M31.113,3.696
        c0.269,0.179,0.448,0.448,0.627,0.717c-0.134,0.179-0.224,0.313-0.358,0.448c-0.135-0.225-0.313-0.493-0.583-0.717c0.089-0.135,0.224-0.27,0.313-0.448z"/>
    </g>
    <g id="Full_Moon" style="fill-rule:evenodd;clip-rule:evenodd;stroke-miterlimit:10;">
      <path d="M17.54,7.459c0.403-0.806,0.716-1.612,0.985-2.464c0.179,0.135,0.313,0.27,0.493,0.403c-0.269,0.94-0.583,1.747-0.896,2.464c0.045,0.225,0,0.27-0.089,0.18c-0.135-0.224-0.314-0.403-0.493-0.583z M18.524,4.1c-0.269-0.313-0.582-0.582-0.896-0.852
        c0.134-0.224,0.224-0.447,0.358-0.672c0.359,0.269,0.627,0.493,0.851,0.852c-0.089,0.224-0.224,0.447-0.313,0.672z M18.211,0.516c0.359,0.224,0.627,0.448,0.807,0.762c-0.134,0.224-0.269,0.448-0.403,0.627c-0.18-0.269-0.448-0.537-0.807-0.807
        c0.135-0.179,0.269-0.403,0.403-0.582z M20.586,4.951c0.134,0.044,0.178,0.09,0.044,0.224c0,0.358,0,0.717,0,1.075c0.134,0,0.313,0,0.493,0c0-0.582,0-1.209,0-1.837c-0.448,0-0.896,0-1.344,0c0,1.255,0,2.464,0,3.719c-0.179,0-0.359,0-0.538,0
        c0-1.434,0-2.867,0-4.257c0.628,0,1.255,0,1.882,0c0-0.268,0-0.492,0-0.761c-0.583,0-1.12,0-1.657,0c0-0.18,0-0.358,0-0.538c0.268,0,0.582,0,0.851,0c0-0.313,0-0.582,0-0.896c-0.403,0-0.807,0-1.254,0c0-0.18,0-0.358,0-0.583c0.448,0,0.851,0,1.254,0
        c0-0.269,0-0.582,0-0.896c0.134,0,0.269,0,0.447,0c0.135,0.045,0.135,0.09,0,0.224c0,0.225,0,0.448,0,0.672c0.403,0,0.762,0,1.12,0c0-0.269,0-0.582,0-0.896c0.179,0,0.313,0,0.449,0c0.134,0.045,0.179,0.09,0.044,0.224c0,0.225,0,0.448,0,0.672
        c0.448,0,0.896,0,1.344,0c0,0.225,0,0.403,0,0.583c-0.448,0-0.896,0-1.344,0c0,0.313,0,0.582,0,0.896c0.269,0,0.583,0,0.852,0c0,0.18,0,0.358,0,0.538c-0.538,0-1.12,0-1.658,0c0,0.269,0,0.493,0,0.761c0.627,0,1.299,0,1.926,0c0,1.21,0,2.42,0,3.629
        c0,0.358-0.134,0.538-0.403,0.538c-0.18,0-0.358,0-0.493,0c-0.044-0.224-0.089-0.448-0.089-0.672c0.089,0,0.224,0,0.358,0c0.044,0,0.09,0,0.09-0.135c0-0.94,0-1.881,0-2.822c-0.448,0-0.941,0-1.389,0c0,0.628,0,1.255,0,1.837c0.179,0,0.359,0,0.538,0
        c0-0.403,0-0.852,0-1.299c0.134,0,0.269,0,0.403,0c0.134,0.044,0.179,0.09,0.044,0.224c0,0.582,0,1.21,0,1.792c-0.179,0-0.313,0-0.448,0c0-0.045,0-0.09,0-0.135c-0.493,0-0.986,0-1.479,0c0,0.135,0,0.27,0,0.403c-0.18,0-0.313,0-0.493,0c0-0.762,0-1.523,0-2.284
        c0.135,0,0.313,0,0.449,0z M21.884,1.681c-0.358,0-0.717,0-1.12,0c0,0.313,0,0.582,0,0.896c0.403,0,0.762,0,1.12,0c0-0.313,0-0.582,0-0.896z"/>
      <path d="M29.097,5.398c-0.851,0-1.747,0-2.598,0c0,0.986-0.403,1.927-1.209,2.822c-0.135-0.224-0.313-0.447-0.449-0.672c0.717-0.582,1.12-1.478,1.12-2.732c0-1.434,0-2.867,0-4.301c1.21,0,2.465,0,3.673,0c0,2.329,0,4.614,0,6.943
        c0,0.403-0.178,0.583-0.447,0.583c-0.224,0-0.448,0-0.672,0c-0.044-0.269-0.089-0.538-0.089-0.807c0.178,0,0.358,0,0.537,0c0.09,0,0.134-0.045,0.134-0.134c0-0.583,0-1.166,0-1.703z M26.499,4.592c0.851,0,1.747,0,2.598,0c0-0.403,0-0.851,0-1.254
        c-0.851,0-1.747,0-2.598,0c0,0.403,0,0.851,0,1.254z M26.499,2.576c0.851,0,1.747,0,2.598,0c0-0.448,0-0.851,0-1.299c-0.851,0-1.747,0-2.598,0c0,0.448,0,0.851,0,1.299z"/>
    </g>
    <g id="Near_Full_After_Full" style="fill-rule:evenodd;clip-rule:evenodd;stroke-miterlimit:10;">
      <path d="M16.106,3.337c0-0.985,0-1.971,0-2.957c0.224,0,0.403,0,0.627,0c0.179,0.045,0.179,0.135,0,0.313c0,0.852,0,1.748,0,2.643c0.896,0,1.792,0,2.688,0c0,0.225,0,0.493,0,0.762c-0.896,0-1.792,0-2.688,0c0,1.344,0,2.643,0,3.987c-0.224,0-0.403,0-0.627,0
        c0-1.344,0-2.643,0-3.987c-0.852,0-1.748,0-2.599,0c0-0.269,0-0.538,0-0.762c0.851,0,1.747,0,2.599,0z"/>
      <path d="M22.87,4.1c-0.583,1.926-1.299,3.226-2.15,3.853c-0.134-0.269-0.224-0.538-0.358-0.806c0.896-0.672,1.568-1.837,1.972-3.584c0.179,0.134,0.403,0.224,0.627,0.358c0.089,0.09,0.044,0.134-0.09,0.18z M24.573,3.606c0.538,1.568,1.209,2.644,2.061,3.36
        c-0.09,0.269-0.224,0.537-0.359,0.851c-0.985-0.896-1.747-2.15-2.24-3.941c0.179-0.09,0.359-0.18,0.538-0.27z M23.811,0.471c0.224,0.045,0.224,0.135,0,0.269c0,0.448,0,0.94,0,1.389c0.896,0,1.792,0,2.688,0c0,0.268,0,0.492,0,0.761c-1.972,0-3.942,0-5.913,0
        c0-0.269,0-0.493,0-0.761c0.851,0,1.747,0,2.598,0c0-0.538,0-1.12,0-1.658c0.224,0,0.403,0,0.627,0z"/>
      <path d="M28.918,8.221c-0.179,0-0.358,0-0.538,0c0-1.165,0-2.33,0-3.539c-0.269,0.313-0.493,0.627-0.717,0.851C27.529,5.354,27.44,5.13,27.35,4.95c0.717-0.761,1.299-1.791,1.657-3.091c-0.493,0-0.985,0-1.523,0c0-0.224,0-0.448,0-0.672c0.896,0,1.792,0,2.733,0
        c0-0.358,0-0.717,0-1.03c0.179,0,0.313,0,0.493,0c0.134,0.045,0.179,0.089,0.044,0.179c0,0.313,0,0.583,0,0.851c0.896,0,1.792,0,2.688,0c0,0.224,0,0.448,0,0.672c-0.896,0-1.837,0-2.777,0c0.134,0.045,0.313,0.134,0.448,0.224c0.09,0.089,0.044,0.134-0.09,0.179
        c-0.089,0.224-0.134,0.448-0.179,0.627c0.493,0,1.03,0,1.568,0c0.044-0.044,0.09-0.089,0.134-0.179c0.134,0.135,0.269,0.224,0.403,0.313c0.134,0.135,0.134,0.135,0,0.179c-0.314,1.3-0.672,2.285-1.12,3.047c0.448,0.537,1.075,0.896,1.836,1.164
        c-0.089,0.225-0.179,0.493-0.269,0.717c-0.717-0.268-1.388-0.717-1.971-1.344c-0.583,0.717-1.254,1.21-2.106,1.479c-0.044-0.269-0.134-0.493-0.179-0.716c0.717-0.18,1.344-0.539,1.881-1.255c-0.313-0.448-0.627-0.985-0.851-1.568
        c-0.224,0.538-0.493,0.896-0.717,1.21c-0.135-0.18-0.225-0.403-0.359-0.583c0.672-0.896,1.165-2.061,1.389-3.494c-0.449,0-0.896,0-1.344,0c0.134,0.09,0.314,0.18,0.448,0.313c0.044,0.09,0.044,0.134-0.089,0.18c-0.18,0.582-0.403,1.03-0.583,1.344
        c0,0.044,0.045,0.044,0.045,0.09c0.044,0.044,0.044,0.134-0.045,0.224c0,1.389,0,2.777,0,4.211z M30.441,4.1c0.135,0.537,0.448,1.075,0.941,1.703c0.358-0.583,0.671-1.345,0.851-2.33c-0.493,0-1.03,0-1.568,0c-0.09,0.224-0.135,0.447-0.225,0.627z M31.113,3.696
        c0.269,0.18,0.448,0.448,0.627,0.717c-0.134,0.134-0.224,0.313-0.358,0.448c-0.135-0.224-0.313-0.492-0.583-0.717c0.089-0.179,0.224-0.313,0.313-0.448z"/>
    </g>
    <g id="Waxing_Quarter" style="fill-rule:evenodd;clip-rule:evenodd;stroke-miterlimit:10;">
      <path d="M6.407,2.935c0.851,0.582,1.523,1.21,2.061,1.882C8.288,5.04,8.154,5.264,8.019,5.443C7.481,4.771,6.81,4.145,6.093,3.517c0.135-0.179,0.224-0.402,0.314-0.582z M5.421,8.042c0-2.062,0-4.122,0-6.228c-0.806,0-1.613,0-2.419,0c0-0.224,0-0.492,0-0.762
        c1.927,0,3.897,0,5.869,0c0,0.27,0,0.538,0,0.762c-0.94,0-1.882,0-2.778,0c0,2.105,0,4.166,0,6.228c-0.224,0-0.448,0-0.672,0z"/>
      <path d="M11.872,6.697c-0.044,0.583-0.089,0.986-0.224,1.255c-0.09,0.179-0.313,0.313-0.538,0.313c-0.269,0-0.493,0-0.762,0c0-0.269-0.044-0.537-0.044-0.806c0.224,0,0.448,0,0.671,0c0.18,0,0.269-0.09,0.314-0.314c0.044-0.313,0.044-0.627,0.044-0.896
        c0.044-0.358,0.044-0.762,0.044-1.12c-0.269,0-0.538,0-0.807,0c-0.044,0.18-0.044,0.313-0.089,0.493c-0.179,0-0.358,0-0.538,0c0.09-1.03,0.18-2.061,0.225-3.092c0.402,0,0.806,0,1.254,0c0-0.402,0-0.806,0-1.209c-0.493,0-0.986,0-1.479,0c0-0.225,0-0.448,0-0.672
        c0.672,0,1.345,0,2.016,0c0,0.94,0,1.926,0,2.866c-0.179,0-0.358,0-0.537,0c0-0.089,0-0.224,0-0.313c-0.269,0-0.493,0-0.762,0c0,0.448-0.044,0.852-0.09,1.255c0.449,0,0.941,0,1.389,0c-0.044,0.762-0.044,1.479-0.09,2.239z M15.411,3.786
        c-0.538,1.12-1.209,2.24-2.016,3.314c0.583-0.044,1.209-0.09,1.792-0.179c-0.089-0.313-0.269-0.672-0.493-1.12c0.179-0.135,0.358-0.269,0.538-0.358c0.358,0.672,0.716,1.479,0.94,2.419c-0.224,0.09-0.402,0.225-0.627,0.314c-0.09-0.225-0.134-0.448-0.179-0.673
        c-0.986,0.135-1.972,0.27-2.912,0.448c-0.044,0.135-0.134,0.179-0.18,0.09C12.23,7.729,12.23,7.46,12.186,7.146c0.179,0,0.313,0,0.493,0c0.179-0.224,0.493-0.716,0.986-1.522c-0.403-0.538-0.852-0.986-1.344-1.434c0.134-0.18,0.224-0.403,0.358-0.583
        c0.09,0.09,0.224,0.18,0.313,0.27c0.313-0.583,0.627-1.12,0.807-1.747c-0.493,0-1.03,0-1.523,0c0-0.225,0-0.448,0-0.628c0.493,0,0.986,0,1.479,0c0-0.492,0-0.94,0-1.389c0.179,0,0.358,0,0.537,0c0.134,0.045,0.134,0.09,0,0.224c0,0.358,0,0.762,0,1.165
        c0.583,0,1.165,0,1.703,0c0,0.18,0,0.403,0,0.628c-0.627,0-1.209,0-1.837,0c0.09,0.089,0.179,0.179,0.269,0.224c0.09,0.134,0.045,0.134-0.09,0.179c-0.313,0.628-0.627,1.255-0.895,1.748c0.224,0.268,0.447,0.492,0.627,0.671c0.268-0.492,0.583-1.12,0.896-1.791
        c0.179,0.134,0.358,0.269,0.538,0.447c0.089,0.09,0.044,0.135-0.09,0.18z"/>
      <path d="M22.221,1.456c0,0.225,0,0.493,0,0.762c-1.523,0-3.002,0-4.48,0c0-0.269,0-0.537,0-0.762c1.478,0,2.957,0,4.48,0z M22.892,6.25c0,0.269,0,0.493,0,0.761c-1.971,0-3.942,0-5.913,0c0-0.268,0-0.492,0-0.761c1.971,0,3.942,0,5.913,0z"/>
      <path d="M26.611,3.383c0-0.985,0-1.972,0-2.912c0.179,0,0.403,0,0.583,0c0.179,0.045,0.179,0.135,0.044,0.269c0,0.896,0,1.747,0,2.644c0.896,0,1.792,0,2.688,0c0,0.269,0,0.537,0,0.762c-0.896,0-1.792,0-2.688,0c0,1.344,0,2.688,0,3.986c-0.224,0-0.448,0-0.627,0
        c0-1.299,0-2.643,0-3.986c-0.896,0-1.747,0-2.599,0c0-0.225,0-0.493,0-0.762c0.852,0,1.703,0,2.599,0z"/>
      <path d="M36.467,1.143c0,0.225,0,0.493,0,0.762c-1.658,0-3.27,0-4.928,0c0-0.269,0-0.537,0-0.762c1.658,0,3.27,0,4.928,0z M36.063,4.593c-1.389,0-2.777,0-4.167,0c0-0.27,0-0.538,0-0.807c1.389,0,2.777,0,4.167,0c0,0.269,0,0.537,0,0.807z M31.046,6.653
        c1.971,0,3.942,0,5.913,0c0,0.269,0,0.537,0,0.761c-1.971,0-3.942,0-5.913,0c0-0.224,0-0.492,0-0.761z"/>
      <path d="M39.378,8.266c-0.179,0-0.358,0-0.538,0c0-1.165,0-2.329,0-3.494c-0.224,0.313-0.493,0.582-0.717,0.852C38.035,5.399,37.9,5.22,37.811,4.996c0.717-0.717,1.344-1.747,1.703-3.092c-0.493,0-1.03,0-1.523,0c0-0.224,0-0.448,0-0.672c0.896,0,1.792,0,2.688,0
        c0-0.358,0-0.672,0-1.03c0.179,0,0.358,0,0.537,0c0.135,0.045,0.135,0.134,0,0.224c0,0.269,0,0.538,0,0.807c0.941,0,1.837,0,2.733,0c0,0.224,0,0.448,0,0.672c-0.94,0-1.881,0-2.777,0c0.134,0.09,0.269,0.179,0.403,0.225c0.09,0.134,0.09,0.179-0.045,0.179
        C41.439,2.576,41.35,2.8,41.305,2.979c0.538,0,1.03,0,1.568,0c0.044-0.09,0.09-0.134,0.134-0.18c0.134,0.09,0.313,0.18,0.448,0.314c0.135,0.089,0.089,0.135-0.044,0.179c-0.269,1.3-0.672,2.284-1.12,3.001c0.448,0.538,1.12,0.941,1.881,1.166
        c-0.089,0.269-0.224,0.492-0.313,0.761c-0.717-0.313-1.389-0.761-1.927-1.389c-0.582,0.762-1.254,1.255-2.105,1.479c-0.09-0.224-0.135-0.448-0.224-0.717c0.717-0.18,1.344-0.537,1.925-1.21c-0.313-0.447-0.627-0.984-0.851-1.612
        c-0.269,0.538-0.493,0.941-0.761,1.209c-0.09-0.179-0.225-0.357-0.313-0.537c0.671-0.896,1.164-2.105,1.388-3.539c-0.448,0-0.896,0-1.344,0c0.134,0.09,0.269,0.225,0.403,0.313c0.089,0.09,0.044,0.135-0.09,0.18c-0.179,0.582-0.358,1.075-0.583,1.389
        c0.045,0,0.045,0.044,0.089,0.044c0.045,0.09,0,0.136-0.089,0.225c0,1.389,0,2.822,0,4.211z M40.947,4.145c0.134,0.538,0.448,1.119,0.896,1.747c0.358-0.628,0.671-1.389,0.896-2.375c-0.538,0-1.075,0-1.568,0c-0.089,0.27-0.179,0.449-0.224,0.628z M41.618,3.786
        c0.225,0.18,0.449,0.403,0.583,0.672c-0.089,0.179-0.224,0.313-0.358,0.492c-0.135-0.268-0.314-0.492-0.538-0.761c0.09-0.135,0.224-0.27,0.313-0.403z"/>
    </g>
    <g id="Waxing_Crescent" style="fill-rule:evenodd;clip-rule:evenodd;stroke-miterlimit:10;">
      <path d="M3.517,2.935C4.368,3.562,5.04,4.188,5.578,4.861C5.398,5.04,5.264,5.265,5.13,5.488C4.593,4.815,3.92,4.145,3.204,3.562c0.089-0.224,0.224-0.403,0.313-0.627z M2.531,8.042c0-2.062,0-4.122,0-6.183c-0.807,0-1.613,0-2.464,0c0-0.269,0-0.538,0-0.762
        c1.971,0,3.942,0,5.914,0c0,0.224,0,0.493,0,0.762c-0.941,0-1.881,0-2.823,0c0,2.061,0,4.121,0,6.183c-0.179,0-0.403,0-0.627,0z"/>
      <path d="M8.983,6.697c-0.045,0.628-0.09,0.986-0.225,1.255C8.669,8.176,8.445,8.266,8.221,8.266c-0.268,0-0.493,0-0.761,0c0-0.269-0.045-0.538-0.045-0.762c0.224,0,0.448,0,0.672,0c0.134,0,0.269-0.135,0.314-0.313c0.044-0.313,0.044-0.672,0.044-0.941
        C8.49,5.892,8.49,5.532,8.49,5.175c-0.269,0-0.537,0-0.806,0c-0.045,0.134-0.045,0.313-0.09,0.447c-0.179,0-0.359,0-0.538,0c0.09-1.03,0.134-2.061,0.224-3.046c0.403,0,0.806,0,1.254,0c0-0.448,0-0.852,0-1.255c-0.493,0-0.985,0-1.478,0c0-0.224,0-0.447,0-0.672
        c0.672,0,1.344,0,2.016,0c0,0.985,0,1.927,0,2.912c-0.179,0-0.358,0-0.538,0c0-0.134,0-0.224,0-0.313c-0.268,0-0.493,0-0.761,0C7.728,3.651,7.728,4.055,7.684,4.502c0.447,0,0.94,0,1.389,0C9.027,5.219,9.027,5.98,8.983,6.697z M12.521,3.785
        c-0.538,1.12-1.209,2.24-2.016,3.36c0.582-0.045,1.209-0.134,1.792-0.18c-0.134-0.313-0.268-0.717-0.493-1.164c0.179-0.135,0.358-0.224,0.493-0.358c0.403,0.672,0.717,1.479,0.986,2.419c-0.224,0.135-0.448,0.224-0.627,0.313c-0.09-0.224-0.135-0.448-0.179-0.672
        c-0.986,0.18-1.971,0.313-2.913,0.448C9.52,8.131,9.431,8.176,9.386,8.042C9.341,7.772,9.296,7.459,9.296,7.19c0.179,0,0.313,0,0.493,0c0.179-0.225,0.492-0.762,0.985-1.568c-0.403-0.537-0.851-0.985-1.344-1.388C9.564,4.01,9.654,3.831,9.789,3.606
        c0.089,0.089,0.224,0.179,0.313,0.269c0.313-0.537,0.627-1.12,0.807-1.702c-0.493,0-1.031,0-1.523,0c0-0.224,0-0.448,0-0.672c0.492,0,0.985,0,1.478,0c0-0.448,0-0.94,0-1.389c0.18,0,0.359,0,0.538,0c0.135,0.045,0.135,0.134,0,0.224c0,0.403,0,0.762,0,1.165
        c0.583,0,1.165,0,1.703,0c0,0.224,0,0.448,0,0.672c-0.627,0-1.21,0-1.837,0c0.09,0.045,0.18,0.135,0.269,0.225c0.09,0.089,0.044,0.134-0.089,0.179c-0.314,0.627-0.627,1.209-0.896,1.747c0.224,0.225,0.448,0.448,0.627,0.672c0.269-0.537,0.583-1.12,0.896-1.837
        c0.179,0.135,0.359,0.313,0.537,0.448c0.09,0.135,0.045,0.135-0.089,0.179z"/>
      <path d="M17.987,7.146c-0.583,0.538-1.299,0.852-2.284,1.12c-0.045-0.269-0.135-0.493-0.179-0.762c0.851-0.135,1.567-0.403,2.061-0.852c-0.18-0.313-0.403-0.627-0.538-1.03c-0.224,0.448-0.583,0.896-1.076,1.255c-0.089-0.18-0.224-0.358-0.313-0.538
        c0.717-0.627,1.166-1.299,1.389-2.104c-0.359,0.044-0.672,0.044-1.03,0.089c-0.045,0.179-0.045,0.225-0.135,0.089c-0.089-0.268-0.134-0.537-0.179-0.806c0.358,0,0.717,0,1.075-0.045c0.179-0.18,0.359-0.358,0.538-0.537c-0.403-0.403-0.806-0.673-1.165-0.896
        c0.09-0.179,0.224-0.403,0.313-0.582c0.09,0.045,0.179,0.089,0.269,0.179c0.269-0.492,0.582-1.03,0.807-1.657c0.178,0.135,0.313,0.269,0.493,0.358c0.134,0.135,0.134,0.224-0.045,0.269c-0.269,0.403-0.537,0.852-0.851,1.39c0.179,0.134,0.358,0.268,0.537,0.402
        c0.313-0.402,0.627-0.896,0.986-1.568c0.179,0.135,0.358,0.27,0.493,0.403c0.089,0.09,0.044,0.135-0.09,0.18c-0.313,0.583-0.852,1.3-1.568,2.061c0.538-0.044,1.076-0.09,1.658-0.134c-0.135-0.225-0.314-0.403-0.449-0.583c0.134-0.134,0.269-0.269,0.359-0.447
        c0.403,0.403,0.807,0.94,1.075,1.612c-0.179,0.135-0.313,0.313-0.493,0.448C19.6,4.278,19.51,4.145,19.42,3.965c-0.583,0.09-1.165,0.134-1.747,0.224c-0.089,0.18-0.179,0.403-0.224,0.583c0.448,0,0.896,0,1.344,0c0.044-0.046,0.044-0.09,0.09-0.18
        c0.134,0.134,0.313,0.224,0.448,0.358c0.135,0.09,0.089,0.135-0.09,0.225c-0.224,0.582-0.538,1.074-0.851,1.478c0.448,0.403,1.076,0.628,1.792,0.762c-0.09,0.27-0.135,0.538-0.225,0.807c-0.761-0.224-1.388-0.537-1.971-1.075z M17.987,6.249
        c0.18-0.224,0.403-0.537,0.583-0.896c-0.359,0-0.717,0-1.076,0c0.09,0.313,0.269,0.627,0.493,0.896z M15.344,8.266c-0.179,0-0.358,0-0.583,0c0-1.21,0-2.42,0-3.629c-0.134,0.225-0.358,0.403-0.537,0.672c-0.09-0.224-0.18-0.493-0.269-0.717
        c0.583-0.582,1.12-1.389,1.479-2.374c0.179,0.18,0.313,0.313,0.493,0.447c0.09,0.09,0.044,0.136-0.089,0.18c-0.134,0.27-0.313,0.583-0.493,0.986c0,1.478,0,2.956,0,4.435z M15.837,0.964c-0.359,0.627-0.851,1.209-1.479,1.747
        c-0.089-0.225-0.179-0.448-0.268-0.673c0.537-0.492,0.985-1.03,1.388-1.702c0.179,0.18,0.359,0.313,0.493,0.493c0.045,0.089,0,0.179-0.134,0.135z"/>
      <path d="M24.349,2.576c-0.269,2.329-0.672,3.763-1.12,4.346c-0.225,0.313-0.493,0.447-0.717,0.447c-0.314,0-0.538-0.089-0.718-0.313c-0.402-0.537-0.627-1.254-0.627-2.105c0-1.03,0.269-1.882,0.852-2.643c0.627-0.807,1.344-1.21,2.24-1.21
        c0.806,0,1.434,0.269,1.926,0.896c0.492,0.671,0.761,1.434,0.761,2.329c0,0.941-0.269,1.747-0.717,2.374c-0.313,0.358-0.806,0.762-1.434,1.165c-0.179-0.269-0.403-0.493-0.583-0.762c0.627-0.269,1.166-0.627,1.523-1.075c0.358-0.493,0.493-0.985,0.493-1.657
        c0-0.717-0.179-1.344-0.537-1.837c-0.403-0.493-0.986-0.717-1.837-0.672c0.179,0.09,0.358,0.179,0.493,0.313c0.224,0.09,0.224,0.225,0,0.403z M23.721,1.904c-0.448,0.134-0.851,0.403-1.209,0.851c-0.493,0.627-0.718,1.39-0.718,2.285
        c0,0.492,0.135,0.985,0.403,1.344c0.045,0.045,0.135,0.09,0.225,0.09c0.134,0,0.224-0.09,0.358-0.269c0.403-0.538,0.762-1.971,0.941-4.301z"/>
      <path d="M33.533,1.143c0,0.269,0,0.538,0,0.762c-1.613,0-3.226,0-4.883,0c0-0.224,0-0.493,0-0.762c1.657,0,3.27,0,4.883,0z M33.174,4.592c-1.388,0-2.777,0-4.167,0c0-0.269,0-0.493,0-0.761c1.389,0,2.778,0,4.167,0c0,0.268,0,0.492,0,0.761z M28.157,6.697
        c1.971,0,3.897,0,5.869,0c0,0.225,0,0.493,0,0.762c-1.972,0-3.898,0-5.869,0c0-0.269,0-0.537,0-0.762z"/>
      <path d="M36.579,7.862c-0.18,0-0.403,0-0.628,0c0-2.284,0-4.569,0-6.81c1.434,0,2.868,0,4.301,0c0,2.195,0,4.436,0,6.631c-0.224,0-0.403,0-0.627,0c0-0.135,0-0.314,0-0.493c-1.031,0-2.016,0-3.046,0c0,0.224,0,0.448,0,0.672z M39.625,3.741
        c0-0.673,0-1.344,0-2.017c-1.031,0-2.016,0-3.046,0c0,0.673,0,1.344,0,2.017c1.03,0,2.015,0,3.046,0z M39.625,6.519c0-0.717,0-1.434,0-2.15c-1.031,0-2.016,0-3.046,0c0,0.717,0,1.434,0,2.15c1.03,0,2.015,0,3.046,0z"/>
      <path d="M46.569,5.488c-0.896,0-1.747,0-2.599,0c0,1.03-0.448,1.971-1.209,2.867c-0.179-0.225-0.313-0.448-0.492-0.672c0.761-0.628,1.12-1.523,1.12-2.778c0-1.434,0-2.867,0-4.301c1.254,0,2.463,0,3.718,0c0,2.33,0,4.66,0,6.944c0,0.403-0.179,0.582-0.493,0.582
        c-0.179,0-0.403,0-0.627,0c-0.044-0.269-0.089-0.537-0.134-0.762c0.224,0,0.403,0,0.582,0c0.09,0,0.135-0.044,0.135-0.179c0-0.538,0-1.12,0-1.702z M43.97,4.726c0.852,0,1.703,0,2.599,0c0-0.447,0-0.851,0-1.298c-0.896,0-1.747,0-2.599,0c0,0.447,0,0.851,0,1.298
        z M43.97,2.665c0.852,0,1.703,0,2.599,0c0-0.447,0-0.851,0-1.254c-0.896,0-1.747,0-2.599,0c0,0.403,0,0.807,0,1.254z"/>
    </g>
    <g id="New_Moon2" style="fill-rule:evenodd;clip-rule:evenodd;stroke-miterlimit:10;">
      <path d="M20.003,7.594c0.717-0.537,1.12-1.39,1.12-2.644c0-1.344,0-2.688,0-4.032c0.18,0.046,0.358,0.09,0.583,0.135c0.492-0.224,0.985-0.402,1.478-0.627c0.134,0.269,0.269,0.492,0.403,0.717c0,0.135-0.044,0.179-0.179,0.089
        c-0.582,0.135-1.165,0.27-1.747,0.403c0,0.493,0,1.031,0,1.523c0.717,0,1.434,0,2.15,0c0,0.225,0,0.448,0,0.672c-0.268,0-0.537,0-0.806,0c0,1.479,0,2.913,0,4.391c-0.179,0-0.358,0-0.538,0c0-1.478,0-2.911,0-4.391c-0.269,0-0.537,0-0.806,0
        c0,0.448,0,0.896,0,1.344c0,1.345-0.448,2.42-1.344,3.092c-0.134-0.225-0.224-0.448-0.314-0.672z M19.466,8.266c-0.179,0-0.359,0-0.538,0c0-0.717,0-1.389,0-2.105c-0.313,0.583-0.627,1.075-0.941,1.434C17.853,7.37,17.673,7.19,17.54,6.967
        c0.537-0.448,0.94-1.076,1.298-1.747c-0.358,0-0.761,0-1.12,0c0-0.225,0-0.448,0-0.673c0.403,0,0.807,0,1.21,0c0-0.269,0-0.537,0-0.806c-0.448,0-0.941,0-1.388,0c0-0.225,0-0.448,0-0.672c0.627,0,1.254,0,1.926,0c0.089-0.403,0.179-0.852,0.268-1.255
        c-0.671,0-1.344,0-2.016,0c0-0.224,0-0.448,0-0.672c0.403,0,0.807,0,1.21,0c0-0.313,0-0.672,0-0.985c0.179,0,0.359,0,0.538,0c0.134,0.044,0.134,0.09,0,0.224c0,0.27,0,0.493,0,0.762c0.403,0,0.806,0,1.209,0c0,0.224,0,0.448,0,0.672c-0.134,0-0.224,0-0.358,0
        c-0.134,0.403-0.269,0.852-0.359,1.255c0.269,0,0.583,0,0.852,0c0,0.224,0,0.447,0,0.672c-0.448,0-0.896,0-1.344,0c0,0.269,0,0.537,0,0.806c0.403,0,0.806,0,1.209,0c0,0.225,0,0.448,0,0.673c-0.403,0-0.806,0-1.209,0c0,0.09,0,0.179,0,0.313
        c0.268,0.09,0.627,0.313,1.075,0.717c-0.09,0.224-0.224,0.493-0.313,0.717c-0.269-0.313-0.493-0.583-0.761-0.763c0,0.673,0,1.39,0,2.062z M18.39,3.024c-0.089-0.313-0.179-0.628-0.313-0.941c0.179-0.089,0.358-0.179,0.538-0.224
        c0.135,0.313,0.224,0.627,0.313,0.94c-0.179,0.09-0.358,0.135-0.538,0.225z"/>
      <path d="M29.097,5.398c-0.851,0-1.703,0-2.598,0c0,1.03-0.403,1.972-1.209,2.867c-0.135-0.225-0.313-0.448-0.449-0.672c0.717-0.583,1.12-1.523,1.12-2.733c0-1.433,0-2.866,0-4.3c1.21,0,2.465,0,3.673,0c0,2.284,0,4.613,0,6.943c0,0.358-0.134,0.537-0.447,0.537
        c-0.224,0-0.448,0-0.672,0c0-0.224-0.044-0.492-0.089-0.761c0.178,0,0.358,0,0.582,0c0.09,0,0.09-0.045,0.09-0.135c0-0.582,0-1.165,0-1.747z M26.499,4.637c0.896,0,1.747,0,2.598,0c0-0.403,0-0.851,0-1.254c-0.851,0-1.703,0-2.598,0c0,0.403,0,0.851,0,1.254z
         M26.499,2.576c0.896,0,1.747,0,2.598,0c0-0.403,0-0.852,0-1.255c-0.851,0-1.703,0-2.598,0c0,0.403,0,0.852,0,1.255z"/>
    </g>
  </g>
    </defs>
            </g>
        </switch>

    <g>
      <radialGradient id="aigrd27" cx="220.3228" cy="110.8154" r="16.6436" fx="220.3228" fy="110.8154" gradientUnits="userSpaceOnUse">
        <stop  offset="0" style="stop-color:#FFFFFF"/>
        <stop  offset="0.3146" style="stop-color:#00FFFF"/>
        <stop  offset="0.5899" style="stop-color:#6666FF"/>
        <stop  offset="1" style="stop-color:#000000"/>
      </radialGradient>
      <path style="fill:url(#aigrd27);stroke:none;" d="M235.628,115.146c0,5.762-4.625,10.434-10.331,10.434c-5.705,0-10.33-4.672-10.33-10.434c0-5.763,4.625-10.435,10.33-10.435c5.706,0,10.331,4.671,10.331,10.435z"/>
      <path d="M233.162,115.146c0,5.763-3.521,10.435-7.864,10.435c-4.343,0-7.864-4.672-7.864-10.435s3.521-10.434,7.864-10.434c4.343,0,7.864,4.671,7.864,10.434z"/>
      <path d="M229.905,105.84c0,0.295-2.063,0.535-4.607,0.535c-2.544,0-4.606-0.24-4.606-0.535"/>
      <path d="M229.144,115.146c0,5.762-1.618,10.434-3.614,10.434c-1.994,0-3.611-4.672-3.611-10.434c0-5.763,1.617-10.435,3.611-10.435c1.996,0,3.614,4.671,3.614,10.435z"/>
      <path d="M232.787,107.937c0,0.602-3.346,1.09-7.474,1.09c-4.127,0-7.474-0.488-7.474-1.09"/>
      <path d="M234.504,110.446c0,0.995-4.13,1.801-9.225,1.801c-5.095,0-9.225-0.806-9.225-1.801"/>
      <path d="M235.455,113.199c0,1.292-4.552,2.339-10.167,2.339c-5.615,0-10.167-1.047-10.167-2.339"/>
      <path d="M235.536,116.456c0,1.238-4.581,2.241-10.232,2.241c-5.651,0-10.256-0.998-10.256-2.235"/>
      <path style="stroke-linecap:round;" d="M234.227,120.378c-0.211,0.884-3.993,1.524-8.906,1.524c-4.914,0-8.702-0.717-8.963-1.553"/>
    </g>
    <g>
      <radialGradient id="aigrd28" cx="223.5317" cy="160.3994" r="16.6431" fx="223.5317" fy="160.3994" gradientUnits="userSpaceOnUse">
        <stop  offset="0" style="stop-color:#FFFFFF"/>
        <stop  offset="0.3146" style="stop-color:#00FFFF"/>
        <stop  offset="0.5899" style="stop-color:#6666FF"/>
        <stop  offset="1" style="stop-color:#000000"/>
      </radialGradient>
      <path style="fill:url(#aigrd28);stroke:none;" d="M238.837,164.729c0,5.762-4.625,10.434-10.331,10.434c-5.705,0-10.33-4.672-10.33-10.434c0-5.763,4.625-10.435,10.33-10.435c5.706,0,10.331,4.671,10.331,10.435z"/>
      <path d="M236.37,164.729c0,5.763-3.521,10.435-7.864,10.435c-4.343,0-7.864-4.672-7.864-10.435s3.521-10.434,7.864-10.434c4.343,0,7.864,4.671,7.864,10.434z"/>
      <path d="M233.113,155.423c0,0.295-2.063,0.535-4.607,0.535c-2.544,0-4.606-0.24-4.606-0.535"/>
      <path d="M232.352,164.729c0,5.762-1.618,10.434-3.614,10.434c-1.994,0-3.611-4.672-3.611-10.434c0-5.763,1.617-10.435,3.611-10.435c1.996,0,3.614,4.671,3.614,10.435z"/>
      <path d="M235.996,157.521c0,0.602-3.346,1.09-7.474,1.09c-4.127,0-7.474-0.488-7.474-1.09"/>
      <path d="M237.713,160.029c0,0.995-4.13,1.801-9.225,1.801c-5.095,0-9.225-0.806-9.225-1.801"/>
      <path d="M238.663,162.783c0,1.292-4.552,2.339-10.167,2.339c-5.615,0-10.167-1.047-10.167-2.339"/>
      <path d="M238.745,166.04c0,1.238-4.581,2.241-10.232,2.241c-5.651,0-10.256-0.998-10.256-2.235"/>
      <path style="stroke-linecap:round;" d="M237.435,169.961c-0.211,0.884-3.993,1.524-8.906,1.524c-4.914,0-8.702-0.717-8.963-1.553"/>
    </g>
    <g>
      <radialGradient id="aigrd29" cx="224.9927" cy="208.4502" r="16.6433" fx="224.9927" fy="208.4502" gradientUnits="userSpaceOnUse">
        <stop  offset="0" style="stop-color:#FFFFFF"/>
        <stop  offset="0.3146" style="stop-color:#00FFFF"/>
        <stop  offset="0.5899" style="stop-color:#6666FF"/>
        <stop  offset="1" style="stop-color:#000000"/>
      </radialGradient>
      <path style="fill:url(#aigrd29);stroke:none;" d="M240.298,212.781c0,5.762-4.625,10.434-10.331,10.434c-5.705,0-10.33-4.672-10.33-10.434c0-5.763,4.625-10.435,10.33-10.435c5.706,0,10.331,4.671,10.331,10.435z"/>
      <path d="M237.831,212.78c0,5.763-3.521,10.435-7.864,10.435c-4.343,0-7.864-4.672-7.864-10.435s3.521-10.434,7.864-10.434c4.343,0,7.864,4.671,7.864,10.434z"/>
      <path d="M234.574,203.475c0,0.295-2.063,0.535-4.607,0.535c-2.544,0-4.606-0.24-4.606-0.535"/>
      <path d="M233.813,212.781c0,5.762-1.618,10.434-3.614,10.434c-1.994,0-3.611-4.672-3.611-10.434c0-5.763,1.617-10.435,3.611-10.435c1.996,0,3.614,4.671,3.614,10.435z"/>
      <path d="M237.457,205.572c0,0.602-3.346,1.09-7.474,1.09c-4.127,0-7.474-0.488-7.474-1.09"/>
      <path d="M239.174,208.081c0,0.995-4.13,1.801-9.225,1.801c-5.095,0-9.225-0.806-9.225-1.801"/>
      <path d="M240.124,210.834c0,1.292-4.552,2.339-10.167,2.339c-5.615,0-10.167-1.047-10.167-2.339"/>
      <path d="M240.206,214.091c0,1.238-4.581,2.241-10.232,2.241c-5.651,0-10.256-0.998-10.256-2.235"/>
      <path style="stroke-linecap:round;" d="M238.896,218.013c-0.211,0.884-3.993,1.524-8.906,1.524c-4.914,0-8.702-0.717-8.963-1.553"/>
    </g>
    <g>
      <radialGradient id="aigrd30" cx="225.5132" cy="256.4316" r="16.6436" fx="225.5132" fy="256.4316" gradientUnits="userSpaceOnUse">
        <stop  offset="0" style="stop-color:#FFFFFF"/>
        <stop  offset="0.3146" style="stop-color:#00FFFF"/>
        <stop  offset="0.5899" style="stop-color:#6666FF"/>
        <stop  offset="1" style="stop-color:#000000"/>
      </radialGradient>
      <path style="fill:url(#aigrd30);stroke:none;" d="M240.819,260.762c0,5.762-4.625,10.434-10.331,10.434c-5.705,0-10.33-4.672-10.33-10.434c0-5.763,4.625-10.435,10.33-10.435c5.706,0,10.331,4.671,10.331,10.435z"/>
      <path d="M238.352,260.762c0,5.763-3.521,10.435-7.864,10.435c-4.343,0-7.864-4.672-7.864-10.435s3.521-10.434,7.864-10.434c4.343,0,7.864,4.671,7.864,10.434z"/>
      <path d="M235.095,251.456c0,0.295-2.063,0.535-4.607,0.535c-2.544,0-4.606-0.24-4.606-0.535"/>
      <path d="M234.334,260.762c0,5.762-1.618,10.434-3.614,10.434c-1.994,0-3.611-4.672-3.611-10.434c0-5.763,1.617-10.435,3.611-10.435c1.996,0,3.614,4.671,3.614,10.435z"/>
      <path d="M237.978,253.553c0,0.602-3.346,1.09-7.474,1.09c-4.127,0-7.474-0.488-7.474-1.09"/>
      <path d="M239.695,256.062c0,0.995-4.13,1.801-9.225,1.801c-5.095,0-9.225-0.806-9.225-1.801"/>
      <path d="M240.645,258.815c0,1.292-4.552,2.339-10.167,2.339c-5.615,0-10.167-1.047-10.167-2.339"/>
      <path d="M240.727,262.072c0,1.238-4.581,2.241-10.232,2.241c-5.651,0-10.256-0.998-10.256-2.235"/>
      <path style="stroke-linecap:round;" d="M239.417,265.994c-0.211,0.884-3.993,1.524-8.906,1.524c-4.914,0-8.702-0.717-8.963-1.553"/>
    </g>
    <g>
      <radialGradient id="aigrd31" cx="225.0493" cy="304.1982" r="16.6433" fx="225.0493" fy="304.1982" gradientUnits="userSpaceOnUse">
        <stop  offset="0" style="stop-color:#FFFFFF"/>
        <stop  offset="0.3146" style="stop-color:#00FFFF"/>
        <stop  offset="0.5899" style="stop-color:#6666FF"/>
        <stop  offset="1" style="stop-color:#000000"/>
      </radialGradient>
      <path style="fill:url(#aigrd31);stroke:none;" d="M240.355,308.528c0,5.762-4.625,10.434-10.331,10.434c-5.705,0-10.33-4.672-10.33-10.434c0-5.763,4.625-10.435,10.33-10.435c5.706,0,10.331,4.671,10.331,10.435z"/>
      <path d="M237.888,308.528c0,5.763-3.521,10.435-7.864,10.435c-4.343,0-7.864-4.672-7.864-10.435s3.521-10.434,7.864-10.434c4.343,0,7.864,4.671,7.864,10.434z"/>
      <path d="M234.631,299.222c0,0.295-2.063,0.535-4.607,0.535c-2.544,0-4.606-0.24-4.606-0.535"/>
      <path d="M233.87,308.528c0,5.762-1.618,10.434-3.614,10.434c-1.994,0-3.611-4.672-3.611-10.434c0-5.763,1.617-10.435,3.611-10.435c1.996,0,3.614,4.671,3.614,10.435z"/>
      <path d="M237.514,301.319c0,0.602-3.346,1.09-7.474,1.09c-4.127,0-7.474-0.488-7.474-1.09"/>
      <path d="M239.231,303.828c0,0.995-4.13,1.801-9.225,1.801c-5.095,0-9.225-0.806-9.225-1.801"/>
      <path d="M240.181,306.582c0,1.292-4.552,2.339-10.167,2.339c-5.615,0-10.167-1.047-10.167-2.339"/>
      <path d="M240.263,309.838c0,1.238-4.581,2.241-10.232,2.241c-5.651,0-10.256-0.998-10.256-2.235"/>
      <path style="stroke-linecap:round;" d="M238.953,313.76c-0.211,0.884-3.993,1.524-8.906,1.524c-4.914,0-8.702-0.717-8.963-1.553"/>
    </g>
    <g>
      <radialGradient id="aigrd32" cx="223.1479" cy="352.0361" r="16.6433" fx="223.1479" fy="352.0361" gradientUnits="userSpaceOnUse">
        <stop  offset="0" style="stop-color:#FFFFFF"/>
        <stop  offset="0.3146" style="stop-color:#00FFFF"/>
        <stop  offset="0.5899" style="stop-color:#6666FF"/>
        <stop  offset="1" style="stop-color:#000000"/>
      </radialGradient>
      <path style="fill:url(#aigrd32);stroke:none;" d="M238.453,356.367c0,5.762-4.625,10.434-10.331,10.434c-5.705,0-10.33-4.672-10.33-10.434c0-5.763,4.625-10.435,10.33-10.435c5.706,0,10.331,4.671,10.331,10.435z"/>
      <path d="M235.986,356.366c0,5.763-3.521,10.435-7.864,10.435c-4.343,0-7.864-4.672-7.864-10.435s3.521-10.434,7.864-10.434c4.343,0,7.864,4.671,7.864,10.434z"/>
      <path d="M232.729,347.061c0,0.295-2.063,0.535-4.607,0.535c-2.544,0-4.606-0.24-4.606-0.535"/>
      <path d="M231.968,356.367c0,5.762-1.618,10.434-3.614,10.434c-1.994,0-3.611-4.672-3.611-10.434c0-5.763,1.617-10.435,3.611-10.435c1.996,0,3.614,4.671,3.614,10.435z"/>
      <path d="M235.612,349.158c0,0.602-3.346,1.09-7.474,1.09c-4.127,0-7.474-0.488-7.474-1.09"/>
      <path d="M237.329,351.667c0,0.995-4.13,1.801-9.225,1.801c-5.095,0-9.225-0.806-9.225-1.801"/>
      <path d="M238.279,354.42c0,1.292-4.552,2.339-10.167,2.339c-5.615,0-10.167-1.047-10.167-2.339"/>
      <path d="M238.361,357.677c0,1.238-4.581,2.241-10.232,2.241c-5.651,0-10.256-0.998-10.256-2.235"/>
      <path style="stroke-linecap:round;" d="M237.051,361.599c-0.211,0.884-3.993,1.524-8.906,1.524c-4.914,0-8.702-0.717-8.963-1.553"/>
    </g>
    <g>
      <radialGradient id="aigrd33" cx="220.0669" cy="400.2441" r="16.6431" fx="220.0669" fy="400.2441" gradientUnits="userSpaceOnUse">
        <stop  offset="0" style="stop-color:#FFFFFF"/>
        <stop  offset="0.3146" style="stop-color:#00FFFF"/>
        <stop  offset="0.5899" style="stop-color:#6666FF"/>
        <stop  offset="1" style="stop-color:#000000"/>
      </radialGradient>
      <path style="fill:url(#aigrd33);stroke:none;" d="M235.372,404.574c0,5.762-4.625,10.434-10.331,10.434c-5.705,0-10.33-4.672-10.33-10.434c0-5.763,4.625-10.435,10.33-10.435c5.706,0,10.331,4.671,10.331,10.435z"/>
      <path d="M232.905,404.574c0,5.763-3.521,10.435-7.864,10.435c-4.343,0-7.864-4.672-7.864-10.435s3.521-10.434,7.864-10.434c4.343,0,7.864,4.671,7.864,10.434z"/>
      <path d="M229.648,395.268c0,0.295-2.063,0.535-4.607,0.535c-2.544,0-4.606-0.24-4.606-0.535"/>
      <path d="M228.887,404.574c0,5.762-1.618,10.434-3.614,10.434c-1.994,0-3.611-4.672-3.611-10.434c0-5.763,1.617-10.435,3.611-10.435c1.996,0,3.614,4.671,3.614,10.435z"/>
      <path d="M232.531,397.365c0,0.602-3.346,1.09-7.474,1.09c-4.127,0-7.474-0.488-7.474-1.09"/>
      <path d="M234.248,399.874c0,0.995-4.13,1.801-9.225,1.801c-5.095,0-9.225-0.806-9.225-1.801"/>
      <path d="M235.198,402.627c0,1.292-4.552,2.339-10.167,2.339c-5.615,0-10.167-1.047-10.167-2.339"/>
      <path d="M235.28,405.884c0,1.238-4.581,2.241-10.232,2.241c-5.651,0-10.256-0.998-10.256-2.235"/>
      <path style="stroke-linecap:round;" d="M233.97,409.806c-0.211,0.884-3.993,1.524-8.906,1.524c-4.914,0-8.702-0.717-8.963-1.553"/>
    </g>
    <g>
      <radialGradient id="aigrd34" cx="215.021" cy="448.2744" r="16.6433" fx="215.021" fy="448.2744" gradientUnits="userSpaceOnUse">
        <stop  offset="0" style="stop-color:#FFFFFF"/>
        <stop  offset="0.3146" style="stop-color:#00FFFF"/>
        <stop  offset="0.5899" style="stop-color:#6666FF"/>
        <stop  offset="1" style="stop-color:#000000"/>
      </radialGradient>
      <path style="fill:url(#aigrd34);stroke:none;" d="M230.326,452.605c0,5.762-4.625,10.434-10.331,10.434c-5.705,0-10.33-4.672-10.33-10.434c0-5.763,4.625-10.435,10.33-10.435c5.706,0,10.331,4.671,10.331,10.435z"/>
      <path d="M227.859,452.604c0,5.763-3.521,10.435-7.864,10.435c-4.343,0-7.864-4.672-7.864-10.435s3.521-10.434,7.864-10.434c4.343,0,7.864,4.671,7.864,10.434z"/>
      <path d="M224.603,443.299c0,0.295-2.063,0.535-4.607,0.535c-2.544,0-4.606-0.24-4.606-0.535"/>
      <path d="M223.841,452.605c0,5.762-1.618,10.434-3.614,10.434c-1.994,0-3.611-4.672-3.611-10.434c0-5.763,1.617-10.435,3.611-10.435c1.996,0,3.614,4.671,3.614,10.435z"/>
      <path d="M227.485,445.396c0,0.602-3.346,1.09-7.474,1.09c-4.127,0-7.474-0.488-7.474-1.09"/>
      <path d="M229.202,447.905c0,0.995-4.13,1.801-9.225,1.801c-5.095,0-9.225-0.806-9.225-1.801"/>
      <path d="M230.152,450.658c0,1.292-4.552,2.339-10.167,2.339c-5.615,0-10.167-1.047-10.167-2.339"/>
      <path d="M230.234,453.915c0,1.238-4.581,2.241-10.232,2.241c-5.651,0-10.256-0.998-10.256-2.235"/>
      <path style="stroke-linecap:round;" d="M228.924,457.837c-0.211,0.884-3.993,1.524-8.906,1.524c-4.914,0-8.702-0.717-8.963-1.553"/>
    </g>

    <defs>
      <filter id="bgRect" primitiveUnits="objectBoundingBox" x="-.2" y="-.2" width="1.4" height="1.4" >
        <feFlood flood-color="black" flood-opacity=".5" result="bg"/>
        <feGaussianBlur in="SourceAlpha" stdDeviation="2" x="-.2" y="-.2" width="1.4" height="1.4" />
        <feOffset dx="2" dy="2" result="shadow"/>
        <feMerge>
          <feMergeNode in="bg" />
          <feMergeNode in="shadow" />
          <feMergeNode in="SourceGraphic" />
        </feMerge>
      </filter>
    </defs>

        <switch>

        <g systemLanguage="fr">
    <g transform="translate(100, 130)" text-anchor="middle" fill="white" 
      stroke="none" font-size="16" font-family="Verdana"
      filter="url(#bgRect)">
      <text x="0" y="0">Les phases <tspan x="0" y="16">de </tspan><tspan x="0" y="32">la lune</tspan></text>
    </g>
        </g>


        <g systemLanguage="en">
    <g transform="translate(100, 130)" text-anchor="middle" fill="white" 
      stroke="none" font-size="16" font-family="Verdana"
      filter="url(#bgRect)">
      <text  x="0" y="0">The phases <tspan x="0" y="16">of </tspan><tspan x="0" y="32">the moon</tspan></text>
    </g>
        </g>

        </switch>
  
  </g>

  <g id="grafiti" transform="translate(280, 250) scale(.1, .1)" style="fill-rule:nonzero;clip-rule:nonzero;fill:none;stroke:#000000;stroke-miterlimit:4;">
    <g style="stroke:none;">
      <g>
        <path d="M1.417,1.938c0.108-0.215,0.215-0.323,0.215-0.538C0.664,3.766,0.449,6.563,0.126,9.144"/>
        <path style="fill:#000000;" d="M1.525,2.001c0.179-0.325,0.142-0.223,0.228-0.568c0.04-0.16-0.186-0.215-0.243-0.066C0.553,3.86,0.321,6.513,0,9.144c-0.02,0.161,0.232,0.159,0.252,0c0.17-1.396,0.324-2.794,0.55-4.183c0.085-0.523,0.201-1.04,0.321-1.556
          c0.083-0.338,0.176-0.673,0.281-1.004C1.713,2.016,1.681,1.84,1.308,1.874C1.229,2.016,1.447,2.143,1.525,2.001z"/>
      </g>
      <g>
        <path d="M5.612,5.487c0-0.107,0.107-0.215,0-0.323C4.751,6.24,3.998,8.391,4.966,9.574c0.538-0.215,0.968-0.753,1.183-1.291c1.506,2.044,3.334-1.828,2.797-3.334"/>
        <path style="fill:#000000;" d="M5.733,5.521c0.051-0.204,0.051-0.186,0-0.39c-0.029-0.116-0.169-0.111-0.23-0.03C4.582,6.317,3.872,8.266,4.857,9.638C4.9,9.696,4.964,9.716,5.03,9.683c0.328-0.163,0.625-0.367,0.841-0.67c0.02-0.027,0.334-0.461,0.319-0.479
          c0.116,0.144,0.266,0.245,0.42,0.34C6.98,9.099,7.475,8.979,7.793,8.722c1-0.808,1.65-2.552,1.275-3.806c-0.047-0.155-0.29-0.089-0.243,0.066c0.38,1.269-1.055,5.11-2.586,3.212C6.19,8.134,6.073,8.15,6.041,8.22C5.944,8.431,5.206,9.693,4.942,9.326
          C4.635,8.898,4.624,8.321,4.653,7.82c0.055-0.932,0.512-1.86,1.067-2.593c-0.077-0.01-0.154-0.02-0.23-0.03c0,0.085,0,0.171,0,0.256C5.451,5.611,5.694,5.678,5.733,5.521z"/>
      </g>
      <g>
        <path d="M10.774,5.81c0-0.753,0.753-1.398,1.506-1.506c0.646,0.86,0.861,2.366,0.753,3.442c-1.076-0.753-3.012,0.107-2.474,1.506c0.646,0,1.291-0.215,1.721-0.646"/>
        <path style="fill:#000000;" d="M10.9,5.81c0.06-0.546,1.036-1.917,1.539-1.003c0.304,0.553,0.409,1.239,0.473,1.855c0.029,0.277,0.219,0.959-0.179,0.79c-0.212-0.09-0.44-0.102-0.667-0.111c-1.092-0.042-1.944,0.892-1.628,1.944
          c0.016,0.051,0.065,0.095,0.122,0.092c0.703-0.039,1.27-0.223,1.81-0.683c0.124-0.105-0.055-0.282-0.178-0.178c-0.135,0.115-1.502,1.05-1.598,0.312c-0.054-0.418,0.264-0.762,0.576-0.979c0.533-0.371,1.27-0.313,1.801,0.005c0.087,0.052,0.183-0.017,0.189-0.109
          c0.09-1.206-0.083-2.486-0.771-3.505c-0.033-0.049-0.084-0.071-0.143-0.058c-0.849,0.187-1.501,0.74-1.598,1.627c-0.018,0.161,0.234,0.16,0.252,0z"/>
      </g>
      <g>
        <path d="M16.368,4.734c0-0.646-1.721,0.323-1.183,1.506c0.323,0.86,1.721,0.646,1.506,1.936c-0.107,0.753-1.076,0.968-1.721,0.753"/>
        <path style="fill:#000000;" d="M16.489,4.7c-0.055-0.354-0.39-0.324-0.657-0.214c-0.479,0.198-0.796,0.685-0.871,1.181c-0.075,0.499,0.235,0.935,0.62,1.204c0.262,0.184,0.556,0.291,0.797,0.509c0.336,0.304,0.225,0.901-0.033,1.205
          c-0.311,0.365-0.938,0.329-1.342,0.223c-0.157-0.042-0.224,0.201-0.067,0.242c1.025,0.269,2.091-0.265,1.861-1.439c-0.079-0.405-0.52-0.634-0.843-0.812c-0.486-0.268-0.816-0.622-0.725-1.231c0.028-0.189,0.947-1.253,1.017-0.8
          c0.025,0.16,0.268,0.092,0.243-0.067z"/>
      </g>
      <g>
        <path d="M23.79,0.109c0.646-0.538-0.107,2.366-0.107,2.689c-0.43,2.043-0.753,4.087-1.183,6.131c0-1.291,0.645-3.334,1.829-3.979c0.86,0.968,0.43,2.474,0.107,3.549"/>
        <path style="fill:#000000;" d="M23.853,0.218c0.021-0.011-0.193,1.955-0.247,2.236c-0.237,1.238-0.472,2.477-0.7,3.716c-0.125,0.682-0.255,1.363-0.389,2.043c-0.196,1,0.425-1.072,0.493-1.276c0.059-0.178,1.087-2.561,1.621-1.143
          c0.309,0.819-0.084,1.873-0.318,2.67c-0.045,0.156,0.197,0.223,0.243,0.067c0.369-1.263,0.671-2.493-0.12-3.646C24.399,4.832,24.324,4.8,24.264,4.84c-1.322,0.894-1.825,2.557-1.891,4.088c-0.006,0.141,0.219,0.173,0.248,0.033
          c0.52-2.536,1.004-5.085,1.453-7.635c0.053-0.302,0.35-1.693-0.347-1.327c-0.144,0.076-0.017,0.293,0.127,0.218z"/>
      </g>
      <g>
        <path d="M26.371,6.777c1.291-0.43,2.259-3.012,0.538-1.828c-2.474,1.721-0.215,3.657,1.936,2.689"/>
        <path style="fill:#000000;" d="M26.405,6.898c0.731-0.272,1.332-1,1.528-1.751c0.201-0.771-0.531-0.65-0.974-0.381c-0.844,0.512-1.676,1.559-0.993,2.519c0.641,0.9,2.009,0.854,2.913,0.475c0.147-0.062,0.083-0.306-0.067-0.243
          c-0.771,0.323-1.642,0.372-2.36-0.106c-0.892-0.594-0.386-1.581,0.238-2.136c0.116-0.103,0.768-0.659,0.987-0.484c0.142,0.113-0.061,0.527-0.113,0.64c-0.239,0.52-0.682,1.023-1.226,1.227c-0.15,0.056-0.085,0.299,0.067,0.242z"/>
      </g>
      <g>
        <path d="M29.706,5.379c0.215,0.538,0.215,1.183,0.323,1.829c-0.323-1.721,0.215-2.474,1.936-2.689"/>
        <path style="fill:#000000;" d="M29.584,5.413c0.209,0.589,0.23,1.215,0.323,1.828c0.081-0.022,0.162-0.044,0.243-0.066c-0.109-0.618-0.183-1.332,0.226-1.861c0.369-0.477,1.063-0.597,1.622-0.674c0.16-0.021,0.091-0.264-0.067-0.242
          c-0.642,0.088-1.422,0.256-1.81,0.837c-0.398,0.598-0.333,1.332-0.214,2.006c0.028,0.161,0.267,0.091,0.243-0.066c-0.093-0.614-0.113-1.239-0.323-1.829c-0.054-0.151-0.297-0.086-0.243,0.067z"/>
      </g>
      <g>
        <path d="M32.61,6.993c0.968-0.323,1.829-1.183,2.043-2.151c-1.076-0.107-2.582,1.506-2.259,2.582c0.43,1.506,2.904,0.538,3.873,0.108"/>
        <path style="fill:#000000;" d="M32.644,7.114c1.03-0.387,1.839-1.163,2.131-2.239c0.021-0.081-0.04-0.157-0.122-0.16c-1.363-0.038-2.917,1.721-2.25,3.048c0.658,1.31,3.03,0.27,3.928-0.124c0.148-0.065,0.02-0.282-0.127-0.218
          c-0.907,0.398-2.025,0.863-3.027,0.625c-1.856-0.442,0.235-3.114,1.477-3.079c-0.041-0.053-0.081-0.106-0.122-0.16c-0.268,0.99-1.008,1.708-1.956,2.063c-0.15,0.057-0.085,0.3,0.067,0.243z"/>
      </g>
      <g>
        <path d="M15.83,13.339c0.107,0,0.107-0.538,0.107-0.215c-0.323,2.689-0.645,5.378-1.291,8.067c-0.43-2.043,0.43-4.733,0.968-6.776c1.076,1.291,2.474,3.334,3.12,4.948c0.43-2.904,0.107-6.992,2.366-9.25"/>
        <path style="fill:#000000;" d="M15.939,13.402c0.258-0.435-0.104,0.219-0.127-0.279c0.044,0.961-0.28,2.283-0.403,3.194c-0.109,0.81-0.243,1.615-0.38,2.42c-0.173,1.015-0.431,2.359-0.337,0.475c0.046-0.933,0.299-1.879,0.518-2.786
          c0.114-0.472,0.162-2.153,1.051-0.99c0.941,1.231,1.746,2.57,2.366,3.989c0.057,0.13,0.221,0.043,0.235-0.063c0.406-3.12,0.102-6.65,2.329-9.162c0.107-0.121-0.07-0.299-0.178-0.178c-1.588,1.79-1.908,4.054-2.119,6.362c-0.056,0.612-0.099,1.226-0.152,1.839
          c-0.114,1.311-0.495-0.171-0.755-0.638c-0.645-1.159-1.45-2.231-2.283-3.26c-0.061-0.076-0.188-0.029-0.21,0.055c-0.603,2.249-1.31,4.497-0.968,6.844c0.019,0.125,0.217,0.115,0.243,0c0.574-2.516,1.41-5.582,1.291-8.188c-0.006-0.135-0.224-0.18-0.248-0.033
          c-0.03,0.091-0.061,0.182-0.091,0.272c-0.083,0.14,0.135,0.267,0.218,0.127z"/>
      </g>
      <g>
        <path d="M20.67,20.115c0.968-0.968,2.582-2.366,2.474-3.765c-1.398,0.107-3.334,2.904-1.828,3.98c1.721,1.291,3.765-2.689,3.765-3.98c-0.215,0.968-0.431,2.366-0.108,3.334c2.151-1.076,4.41-5.163,4.518-7.529c-3.872,1.829-2.796,11.509,1.076,6.561"/>
        <path style="fill:#000000;" d="M20.759,20.204c1.11-1.093,2.423-2.199,2.511-3.854c0.004-0.086-0.083-0.138-0.16-0.121c-1.75,0.374-3.593,3.221-1.551,4.384c1.838,1.048,3.549-3.062,3.647-4.263c0.011-0.142-0.219-0.172-0.248-0.033
          c-0.233,1.146-0.374,2.249-0.108,3.401c0.019,0.08,0.117,0.114,0.185,0.075c2.52-1.448,4.32-4.795,4.58-7.638c0.009-0.1-0.112-0.15-0.189-0.109c-2.161,1.165-2.736,4.012-2.376,6.262c0.402,2.52,2.283,2.091,3.604,0.497c0.103-0.124-0.074-0.303-0.178-0.178
          c-0.66,0.796-1.838,2.046-2.748,0.809c-0.55-0.747-0.553-1.876-0.522-2.756c0.035-1.013,0.333-2.008,0.802-2.9c0.297-0.566,0.74-1.008,1.263-1.364c-0.047,0.032-0.37,1.771-0.443,1.975c-0.536,1.507-1.455,2.914-2.521,4.094
          c-0.919,1.017-1.397,1.006-1.358-0.467c0.048-1.815-0.009-1.132-0.449-0.096c-0.171,0.404-0.406,0.776-0.641,1.145c-0.286,0.443-0.641,0.819-1.066,1.129c-1.75-0.523-2.227-1.306-1.43-2.348c0.3-0.48,0.691-0.869,1.174-1.164c0.314,0.735,0.15,1.346-0.492,1.835
          c-0.432,0.546-0.97,1.02-1.465,1.508c-0.116,0.114,0.062,0.292,0.178,0.178z"/>
      </g>
      <g>
        <path d="M24.973,14.522c0-0.107,0.215-0.215,0.215-0.323c0-0.107-0.107-0.215-0.215-0.215c-0.43,0.43-0.43,0.538-0.323,1.076c0.646-0.215,0.861-0.646,0.753-1.184c-0.215,0.108-0.322,0.538-0.107,0.215"/>
        <path style="fill:#000000;" d="M25.094,14.556c0.048-0.116,0.263-0.235,0.215-0.39c-0.054-0.175-0.129-0.25-0.303-0.303c-0.042-0.013-0.092,0.001-0.123,0.032c-0.385,0.396-0.459,0.66-0.355,1.198c0.012,0.063,0.094,0.11,0.155,0.088
          c0.624-0.236,0.946-0.665,0.841-1.339c-0.012-0.077-0.123-0.119-0.185-0.075c-0.143,0.102-0.389,0.35-0.237,0.531c0.048,0.057,0.128,0.04,0.178,0c0.055-0.043,0.079-0.083,0.124-0.143c0.097-0.13-0.122-0.255-0.218-0.127c-0.028,0.031-0.056,0.062-0.084,0.092
          c0.059,0,0.119,0,0.178,0c0.083,0.054,0.146,0.009,0.186-0.135c-0.062-0.025-0.123-0.05-0.185-0.075c0.083,0.53-0.186,0.848-0.665,1.028c0.052,0.029,0.104,0.059,0.155,0.088c-0.056-0.288-0.096-0.499,0.096-0.746c0.207-0.266,0.02,0.122-0.017,0.208
          c-0.063,0.15,0.181,0.215,0.243,0.067z"/>
      </g>
      <g>
        <g>
          <path d="M32.93,13.642c-0.12-0.596-1.073,0.06-1.073,0.596c-0.06,1.192,1.788,0.179,1.371-0.596"/>
          <path style="fill:#000000;" d="M33.052,13.608c-0.28-0.9-1.847,0.373-1.152,1.165c0.279,0.319,0.828,0.051,1.085-0.145c0.333-0.253,0.531-0.65,0.352-1.05c-0.066-0.148-0.283-0.02-0.218,0.127c0.202,0.452-0.36,0.849-0.733,0.943
            c-0.393,0.1-0.468-0.338-0.349-0.619c0.076-0.179,0.642-0.773,0.772-0.354c0.048,0.154,0.291,0.088,0.243-0.067z"/>
        </g>
        <g>
          <path d="M33.288,12.748c0.656-0.298,1.312-0.596,1.967-0.715c-0.358,0.834-0.596,1.788-0.834,2.683"/>
          <path style="fill:#000000;" d="M33.351,12.857c0.63-0.286,1.257-0.563,1.938-0.703c-0.052-0.052-0.104-0.104-0.155-0.155c-0.36,0.868-0.594,1.776-0.834,2.683c-0.042,0.157,0.201,0.224,0.243,0.067c0.24-0.907,0.474-1.815,0.834-2.683
            c0.04-0.096-0.072-0.172-0.155-0.155c-0.701,0.145-1.349,0.434-1.997,0.728c-0.147,0.067-0.02,0.284,0.127,0.218z"/>
        </g>
        <g>
          <path d="M36.864,10.84c-0.238,1.55-0.954,3.1-1.431,4.65"/>
          <path style="fill:#000000;" d="M36.743,10.807c-0.281,1.607-0.938,3.103-1.431,4.65c-0.049,0.155,0.194,0.221,0.243,0.066c0.492-1.547,1.149-3.042,1.431-4.649c0.027-0.159-0.215-0.227-0.243-0.067z"/>
        </g>
        <g>
          <path d="M37.341,12.271c2.027-1.252-0.119,1.789-0.239,2.146c0.417,0,0.835-0.119,1.192-0.298"/>
          <path style="fill:#000000;" d="M37.405,12.38c0.107-0.064,0.717-0.474,0.672-0.159c-0.041,0.287-0.207,0.566-0.34,0.818c-0.236,0.447-0.575,0.872-0.756,1.345c-0.029,0.075,0.045,0.162,0.122,0.159c0.447-0.018,0.851-0.127,1.256-0.315
            c0.147-0.068,0.019-0.286-0.127-0.218c-0.367,0.17-0.723,0.265-1.129,0.281c0.041,0.053,0.081,0.106,0.122,0.159c0.26-0.679,0.774-1.249,1.033-1.939c0.064-0.172,0.155-0.484-0.038-0.614c-0.276-0.185-0.718,0.131-0.941,0.265
            c-0.139,0.084-0.012,0.302,0.127,0.218z"/>
        </g>
        <g>
          <path d="M39.189,11.914c0.119,0.656,0.119,1.371,0.119,2.086"/>
          <path style="fill:#000000;" d="M39.068,11.947c0.112,0.68,0.115,1.365,0.115,2.053c0,0.162,0.252,0.162,0.252,0c0-0.71-0.008-1.417-0.124-2.12c-0.026-0.16-0.269-0.092-0.243,0.067z"/>
        </g>
        <g>
          <path d="M41.991,10.542c-0.417,1.669-1.133,3.278-1.491,4.888"/>
          <path style="fill:#000000;" d="M41.87,10.509c-0.434,1.65-1.096,3.228-1.491,4.889c-0.037,0.158,0.206,0.225,0.243,0.066c0.394-1.66,1.057-3.238,1.491-4.888c0.041-0.157-0.202-0.224-0.243-0.067z"/>
        </g>
        <g>
          <path d="M43.481,11.317c-0.656,0.596-1.312,1.609-1.312,2.503c1.132,0.179,1.192-1.609,0.238-1.013"/>
          <path style="fill:#000000;" d="M43.393,11.229c-0.716,0.674-1.311,1.585-1.349,2.592c-0.002,0.074,0.06,0.119,0.126,0.126c0.553,0.06,0.997-0.292,1.031-0.854c0.033-0.541-0.483-0.605-0.856-0.394c-0.141,0.08-0.014,0.298,0.127,0.218
            c0.339-0.193,0.542-0.027,0.452,0.34c-0.085,0.353-0.428,0.474-0.754,0.438c0.042,0.042,0.084,0.084,0.126,0.126c0.035-0.94,0.609-1.788,1.274-2.415c0.119-0.111-0.06-0.289-0.178-0.178z"/>
        </g>
        <g>
          <path d="M44.972,10.9c0-0.537-0.656,0.119-0.775,0.477c-0.179,0.834,0.775-0.119,0.894-0.417c-0.238,0.834-0.656,1.908-0.894,2.623"/>
          <path style="fill:#000000;" d="M45.098,10.9c-0.091-0.847-1.038,0.234-1.048,0.684c-0.017,0.73,1.055-0.366,1.15-0.561c-0.077-0.032-0.153-0.064-0.23-0.097c-0.26,0.887-0.598,1.748-0.894,2.623c-0.052,0.154,0.191,0.22,0.243,0.067
            c0.295-0.875,0.634-1.736,0.894-2.623c0.04-0.135-0.167-0.227-0.23-0.097c-0.099,0.203-0.264,0.366-0.428,0.518c-0.216,0.199-0.294,0.087-0.16-0.154c-0.008,0.015,0.434-0.529,0.452-0.36c0.017,0.16,0.269,0.161,0.252,0z"/>
        </g>
      </g>
    </g>
  </g>
  <rect width="100%" height="100%" stroke="white" stroke-width="3" fill="none"/>

</svg>
