<svg width="40" height="40" viewBox="0 0 40 40" xmlns="http://www.w3.org/2000/svg" xmlns:xlink="http://www.w3.org/1999/xlink" overflow="hidden"><defs><filter id="filter-1" color-interpolation-filters="linearRGB" x="-10%" y="-10%" width="120%" height="120%" filterUnits="objectBoundingBox" primitiveUnits="userSpaceOnUse"><feColorMatrix in="SourceGraphic" type="matrix" values="0.000000 0.000000 0.000000 0.000000 1.000000 0.000000 0.000000 0.000000 0.000000 1.000000 0.000000 0.000000 0.000000 0.000000 1.000000 0.000000 0.000000 0.000000 1.000000 0.000000 "/></filter><path d="M0 0 26.9996 0 26.9996 27 0 27Z" id="path-2"/></defs><g id="Icon-Architecture-Group/32/Spot-Fleet_32" stroke="none" stroke-width="1" fill="none" fill-rule="evenodd"><rect x="0" y="0" width="40" height="40" id="Rectangle" fill="#D45B07"/><g id="Group-3" filter="url(#filter-1)"><g transform="translate(6 6)"><mask id="mask-3" fill="#FFFFFF"><use width="100%" height="100%" xlink:href="#path-2"></use></mask><g id="Clip-2"></g><path d="M1.1396 14-0.0004 14-0.0004 13 1.1396 13C1.2366 10.558 2.0276 8.233 3.4606 6.252L4.2716 6.838C2.9616 8.647 2.2356 10.77 2.1396 13L2.9996 13 2.9996 14 2.1396 14C2.2356 16.23 2.9616 18.353 4.2716 20.162L3.4606 20.748C2.0276 18.767 1.2366 16.442 1.1396 14L1.1396 14ZM20.7476 23.539C18.7666 24.973 16.4426 25.764 13.9996 25.86L13.9996 27 12.9996 27 12.9996 25.86C10.5576 25.764 8.2336 24.973 6.2516 23.539L6.8376 22.729C8.6476 24.038 10.7696 24.765 12.9996 24.86L12.9996 24 13.9996 24 13.9996 24.86C16.2306 24.765 18.3526 24.038 20.1616 22.729L20.7476 23.539ZM6.2516 3.461C8.2336 2.027 10.5576 1.236 12.9996 1.14L12.9996 0 13.9996 0 13.9996 1.14C16.4426 1.236 18.7666 2.027 20.7476 3.461L20.1616 4.271C18.3526 2.962 16.2306 2.235 13.9996 2.14L13.9996 3 12.9996 3 12.9996 2.14C10.7696 2.235 8.6476 2.962 6.8376 4.271L6.2516 3.461ZM26.9996 14 25.8606 14C25.7636 16.442 24.9726 18.767 23.5386 20.748L22.7286 20.162C24.0376 18.353 24.7646 16.23 24.8606 14L23.9996 14 23.9996 13 24.8606 13C24.7646 10.77 24.0376 8.647 22.7286 6.838L23.5386 6.252C24.9726 8.233 25.7636 10.558 25.8606 13L26.9996 13 26.9996 14ZM20.7056 5.587 24.4866 1.807 25.1936 2.514 21.4126 6.294 20.7056 5.587ZM6.2936 21.413 2.5136 25.193 1.8066 24.486 5.5866 20.706 6.2936 21.413ZM18.1736 17.467 25.1936 24.486 24.4866 25.193 17.4666 18.174 18.1736 17.467ZM8.8266 9.533 1.8066 2.514 2.5136 1.807 9.5336 8.826 8.8266 9.533ZM18.9996 13 18.9996 8 13.9996 8 13.9996 9 12.9996 9 12.9996 7.751C12.9996 7.337 13.3366 7 13.7506 7L19.2486 7C19.6626 7 19.9996 7.337 19.9996 7.751L19.9996 13.249C19.9996 13.663 19.6626 14 19.2486 14L17.9996 14 17.9996 13 18.9996 13ZM7.9996 14 7.9996 19 12.9996 19 12.9996 18 13.9996 18 13.9996 19.249C13.9996 19.663 13.6626 20 13.2486 20L7.7506 20C7.3366 20 6.9996 19.663 6.9996 19.249L6.9996 13.751C6.9996 13.337 7.3366 13 7.7506 13L8.9996 13 8.9996 14 7.9996 14ZM10.9996 16 15.9996 16 15.9996 11 10.9996 11 10.9996 16ZM16.9996 16.129 16.9996 10.871C16.9996 10.391 16.6096 10 16.1286 10L10.8706 10C10.3906 10 9.9996 10.391 9.9996 10.871L9.9996 16.129C9.9996 16.609 10.3906 17 10.8706 17L16.1286 17C16.6096 17 16.9996 16.609 16.9996 16.129L16.9996 16.129Z" id="Fill-1" fill="#232F3E" mask="url(#mask-3)"/></g></g></g></svg>