<svg width="40" height="40" viewBox="0 0 40 40" xmlns="http://www.w3.org/2000/svg" xmlns:xlink="http://www.w3.org/1999/xlink" overflow="hidden"><g id="Icon-Architecture-Group/32/VPC_32" stroke="none" stroke-width="1" fill="none" fill-rule="evenodd"><rect x="0" y="0" width="40" height="40" id="Rectangle" fill="#3F8624"/><path d="M28.993 27.995 11.487 27.976C9.121 27.974 7.154 26.129 7.012 23.775 7.004 23.652 7 23.526 7 23.397 7 20.299 9.091 19.287 10.337 18.959 10.577 18.896 10.735 18.666 10.707 18.419 10.676 18.149 10.659 17.875 10.659 17.596 10.659 15.132 12.308 12.482 14.415 11.563 15.359 11.15 16.232 10.986 17.023 10.986 19.276 10.986 20.867 12.315 21.561 13.033 22.329 13.826 22.927 14.838 23.34 16.042 23.4 16.219 23.555 16.347 23.74 16.374 23.918 16.401 24.109 16.323 24.219 16.171 24.807 15.35 25.766 14.982 26.659 15.239 27.782 15.56 28.516 16.727 28.62 18.307 28.578 18.576 28.759 18.829 29.027 18.877 30.222 19.089 33 19.957 33 23.44 33 27.589 29.114 27.982 28.993 27.995L28.993 27.995ZM29.594 17.974C29.379 16.067 28.4 14.696 26.934 14.278 25.899 13.982 24.811 14.245 23.989 14.95 23.553 13.936 22.979 13.06 22.28 12.338 20.023 10.005 16.933 9.372 14.014 10.646 11.531 11.73 9.659 14.718 9.659 17.596 9.659 17.77 9.665 17.943 9.676 18.114 8.319 18.573 6 19.875 6 23.397 6 23.549 6.004 23.696 6.014 23.838 6.188 26.716 8.593 28.973 11.486 28.976L29.034 28.993C29.084 28.989 34 28.519 34 23.44 34 19.502 31.003 18.314 29.594 17.974L29.594 17.974ZM17 24.995 22 24.995 22 20.995 17 20.995 17 24.995ZM18 19.495C18 18.668 18.673 17.995 19.5 17.995 20.327 17.995 21 18.668 21 19.495L21 19.995 18 19.995 18 19.495ZM22.5 19.995 22 19.995 22 19.495C22 18.117 20.879 16.995 19.5 16.995 18.121 16.995 17 18.117 17 19.495L17 19.995 16.5 19.995C16.223 19.995 16 20.219 16 20.495L16 25.495C16 25.771 16.223 25.995 16.5 25.995L22.5 25.995C22.776 25.995 23 25.771 23 25.495L23 20.495C23 20.219 22.776 19.995 22.5 19.995L22.5 19.995Z" id="Fill-1" fill="#FFFFFF"/></g></svg>